<?xml version="1.0" encoding="UTF-8"?>
<svg width="80px" height="80px" viewBox="0 0 80 80" version="1.1" xmlns="http://www.w3.org/2000/svg" xmlns:xlink="http://www.w3.org/1999/xlink">
    <title>smiley-happy</title>
    <g id="smiley-happy" stroke="none" stroke-width="1" fill="none" fill-rule="evenodd">
        <g id="Orion_smile-emoji" transform="translate(10.000000, 10.000000)" fill="#8BC34A" fill-rule="nonzero">
            <path d="M30,0 C13.4314575,0 0,13.4314575 0,30 C0,46.5685425 13.4314575,60 30,60 C46.5685425,60 60,46.5685425 60,30 C60,13.4314575 46.5685425,0 30,0 Z M40,20 C42.209139,20 44,21.790861 44,24 C44,26.209139 42.209139,28 40,28 C37.790861,28 36,26.209139 36,24 C36,21.790861 37.790861,20 40,20 Z M20,20 C22.209139,20 24,21.790861 24,24 C24,26.209139 22.209139,28 20,28 C17.790861,28 16,26.209139 16,24 C16,21.790861 17.790861,20 20,20 Z M30,52 C21.4,52 14.2,45.9 12,38 L48,38 C45.8,45.9 38.6,52 30,52 Z" id="Shape"></path>
        </g>
    </g>
</svg>