<?xml version="1.0" encoding="UTF-8"?>
<svg width="80px" height="80px" viewBox="0 0 80 80" version="1.1" xmlns="http://www.w3.org/2000/svg" xmlns:xlink="http://www.w3.org/1999/xlink">
    <title>smiley-sad</title>
    <g id="smiley-sad" stroke="none" stroke-width="1" fill="none" fill-rule="evenodd">
        <g id="Orion_sad-emoji" transform="translate(10.000000, 10.000000)" fill="#F44336" fill-rule="nonzero">
            <path d="M30,0 C13.4314575,0 0,13.4314575 0,30 C0,46.5685425 13.4314575,60 30,60 C46.5685425,60 60,46.5685425 60,30 C60,13.4314575 46.5685425,0 30,0 Z M40,20 C42.209139,20 44,21.790861 44,24 C44,26.209139 42.209139,28 40,28 C37.790861,28 36,26.209139 36,24 C36,21.790861 37.790861,20 40,20 Z M20,20 C22.209139,20 24,21.790861 24,24 C24,26.209139 22.209139,28 20,28 C17.790861,28 16,26.209139 16,24 C16,21.790861 17.790861,20 20,20 Z M45.2,47.7 C44.3687839,48.4095405 43.121929,48.3204795 42.4,47.5 C39.2683675,43.9653958 34.7723457,41.9420062 30.05,41.9420062 C25.3276543,41.9420062 20.8316325,43.9653958 17.7,47.5 C17.2176915,48.0358984 16.4861216,48.2737804 15.7808657,48.1240381 C15.0756098,47.9742958 14.503813,47.4596788 14.2808657,46.7740381 C14.0579184,46.0883975 14.2176915,45.3358984 14.7,44.8 C18.5909703,40.4044006 24.1796556,37.8877702 30.05,37.8877702 C35.9203444,37.8877702 41.5090297,40.4044006 45.4,44.8 C45.7727305,45.2043897 45.9624917,45.74442 45.9246531,46.2930795 C45.8868145,46.8417391 45.6247155,47.3506066 45.2,47.7 Z" id="Shape"></path>
        </g>
    </g>
</svg>