<?xml version="1.0" encoding="UTF-8"?>
<svg width="80px" height="80px" viewBox="0 0 80 80" version="1.1" xmlns="http://www.w3.org/2000/svg" xmlns:xlink="http://www.w3.org/1999/xlink">
    <title>thumbs-down</title>
    <g id="thumbs-down" stroke="none" stroke-width="1" fill="none" fill-rule="evenodd">
        <path d="M18,42 L16,42 C13.790861,42 12,43.790861 12,46 C12,48.209139 13.790861,50 16,50 L38,50 C36.6625512,55.9063705 35.9916922,61.944101 36,68 C36,70.209139 37.790861,72 40,72 C42.209139,72 44,70.209139 44,68 C44,68 48,46 62,46 L68,46 L68,22 L58,22 C54,22 46,18 42,18 L22,18 C19.790861,18 18,19.790861 18,22 C18,24.209139 19.790861,26 22,26 L20,26 C17.790861,26 16,27.790861 16,30 C16,32.209139 17.790861,34 20,34 L18,34 C15.790861,34 14,35.790861 14,38 C14,40.209139 15.790861,42 18,42" id="thumbs_down" fill="#F44336"></path>
    </g>
</svg>