<?xml version="1.0" encoding="UTF-8"?>
<svg width="80px" height="80px" viewBox="0 0 80 80" version="1.1" xmlns="http://www.w3.org/2000/svg" xmlns:xlink="http://www.w3.org/1999/xlink">
    <title>thumbs-up</title>
    <g id="thumbs-up" stroke="none" stroke-width="1" fill="none" fill-rule="evenodd">
        <path d="M62,38 L64,38 C66.209139,38 68,36.209139 68,34 C68,31.790861 66.209139,30 64,30 L42,30 C43.3374488,24.0936295 44.0083078,18.055899 44,12 C44,9.790861 42.209139,8 40,8 C37.790861,8 36,9.790861 36,12 C36,12 32,34 18,34 L12,34 L12,58 L22,58 C26,58 34,62 38,62 L58,62 C60.209139,62 62,60.209139 62,58 C62,55.790861 60.209139,54 58,54 L60,54 C62.209139,54 64,52.209139 64,50 C64,47.790861 62.209139,46 60,46 L62,46 C64.209139,46 66,44.209139 66,42 C66,39.790861 64.209139,38 62,38" id="thumbs_up" fill="#8BC34A"></path>
    </g>
</svg>