<svg width="320" height="240" viewBox="0 0 320 240" fill="none" xmlns="http://www.w3.org/2000/svg">
<rect width="320" height="240" fill="white"/>
<rect opacity="0.15" x="30" y="31" width="120" height="50" rx="4" fill="#0092CC"/>
<circle cx="58.5" cy="56.5" r="13.5" fill="#0092CC"/>
<rect x="79" y="49" width="54" height="2" fill="#0092CC"/>
<rect x="79" y="53" width="54" height="2" fill="#0092CC"/>
<rect x="79" y="57" width="54" height="2" fill="#0092CC"/>
<rect x="79" y="61" width="37" height="2" fill="#0092CC"/>
<rect opacity="0.15" x="30" y="95" width="120" height="50" rx="4" fill="#0092CC"/>
<circle cx="58.5" cy="120.5" r="13.5" fill="#0092CC"/>
<rect x="79" y="113" width="54" height="2" fill="#0092CC"/>
<rect x="79" y="117" width="54" height="2" fill="#0092CC"/>
<rect x="79" y="121" width="54" height="2" fill="#0092CC"/>
<rect x="79" y="125" width="37" height="2" fill="#0092CC"/>
<rect opacity="0.15" x="30" y="159" width="120" height="50" rx="4" fill="#0092CC"/>
<circle cx="58.5" cy="184.5" r="13.5" fill="#0092CC"/>
<rect x="79" y="177" width="54" height="2" fill="#0092CC"/>
<rect x="79" y="181" width="54" height="2" fill="#0092CC"/>
<rect x="79" y="185" width="54" height="2" fill="#0092CC"/>
<rect x="79" y="189" width="37" height="2" fill="#0092CC"/>
<rect opacity="0.15" x="170" y="31" width="120" height="50" rx="4" fill="#0092CC"/>
<circle cx="198.5" cy="56.5" r="13.5" fill="#0092CC"/>
<rect x="219" y="49" width="54" height="2" fill="#0092CC"/>
<rect x="219" y="53" width="54" height="2" fill="#0092CC"/>
<rect x="219" y="57" width="54" height="2" fill="#0092CC"/>
<rect x="219" y="61" width="37" height="2" fill="#0092CC"/>
<rect opacity="0.15" x="170" y="95" width="120" height="50" rx="4" fill="#0092CC"/>
<circle cx="198.5" cy="120.5" r="13.5" fill="#0092CC"/>
<rect x="219" y="113" width="54" height="2" fill="#0092CC"/>
<rect x="219" y="117" width="54" height="2" fill="#0092CC"/>
<rect x="219" y="121" width="54" height="2" fill="#0092CC"/>
<rect x="219" y="125" width="37" height="2" fill="#0092CC"/>
<rect opacity="0.15" x="170" y="159" width="120" height="50" rx="4" fill="#0092CC"/>
<circle cx="198.5" cy="184.5" r="13.5" fill="#0092CC"/>
<rect x="219" y="177" width="54" height="2" fill="#0092CC"/>
<rect x="219" y="181" width="54" height="2" fill="#0092CC"/>
<rect x="219" y="185" width="54" height="2" fill="#0092CC"/>
<rect x="219" y="189" width="37" height="2" fill="#0092CC"/>
</svg>
