<svg width="320" height="240" viewBox="0 0 320 240" fill="none" xmlns="http://www.w3.org/2000/svg">
<rect width="320" height="240" fill="white"/>
<rect opacity="0.15" x="30" y="32" width="121" height="78" rx="4" fill="#0092CC"/>
<rect x="55" y="55" width="70" height="4" fill="#0092CC"/>
<rect x="55" y="65" width="70" height="4" fill="#0092CC"/>
<rect x="55" y="75" width="70" height="4" fill="#0092CC"/>
<rect x="55" y="85" width="70" height="4" fill="#0092CC"/>
<rect opacity="0.15" x="169" y="32" width="121" height="78" rx="4" fill="#0092CC"/>
<rect opacity="0.15" x="30" y="130" width="121" height="78" rx="4" fill="#0092CC"/>
<rect x="55" y="153" width="70" height="4" fill="#0092CC"/>
<rect x="55" y="163" width="70" height="4" fill="#0092CC"/>
<rect x="55" y="173" width="70" height="4" fill="#0092CC"/>
<rect x="55" y="183" width="70" height="4" fill="#0092CC"/>
<rect x="195" y="55" width="70" height="4" fill="#0092CC"/>
<rect x="195" y="65" width="70" height="4" fill="#0092CC"/>
<rect x="195" y="75" width="70" height="4" fill="#0092CC"/>
<rect x="195" y="85" width="70" height="4" fill="#0092CC"/>
<rect x="195" y="153" width="70" height="4" fill="#0092CC"/>
<rect x="195" y="163" width="70" height="4" fill="#0092CC"/>
<rect x="195" y="173" width="70" height="4" fill="#0092CC"/>
<rect x="195" y="183" width="70" height="4" fill="#0092CC"/>
<rect opacity="0.15" x="169" y="130" width="121" height="78" rx="4" fill="#0092CC"/>
</svg>
