<svg width="320" height="240" viewBox="0 0 320 240" fill="none" xmlns="http://www.w3.org/2000/svg">
<rect width="320" height="240" fill="white"/>
<rect opacity="0.15" x="30" y="30" width="58" height="39" rx="4" fill="#0092CC"/>
<circle cx="59" cy="44" r="6" fill="#0092CC"/>
<rect x="45" y="55" width="28" height="1" fill="#0092CC"/>
<rect opacity="0.15" x="97" y="30" width="59" height="39" rx="4" fill="#0092CC"/>
<circle cx="127" cy="44" r="6" fill="#0092CC"/>
<rect x="112" y="55" width="29" height="1" fill="#0092CC"/>
<rect opacity="0.15" x="165" y="30" width="58" height="39" rx="4" fill="#0092CC"/>
<circle cx="194" cy="44" r="6" fill="#0092CC"/>
<rect x="179" y="55" width="28" height="1" fill="#0092CC"/>
<rect x="48" y="58" width="23" height="1" fill="#0092CC"/>
<rect x="115" y="58" width="22" height="1" fill="#0092CC"/>
<rect x="182" y="58" width="22" height="1" fill="#0092CC"/>
<rect opacity="0.15" x="233" y="30" width="57" height="39" rx="4" fill="#0092CC"/>
<circle cx="262" cy="44" r="6" fill="#0092CC"/>
<rect x="247" y="55" width="27" height="1" fill="#0092CC"/>
<rect x="249" y="58" width="22" height="1" fill="#0092CC"/>
<rect opacity="0.15" x="30" y="77" width="58" height="39" rx="4" fill="#0092CC"/>
<circle cx="59" cy="91" r="6" fill="#0092CC"/>
<rect x="45" y="102" width="28" height="1" fill="#0092CC"/>
<rect opacity="0.15" x="97" y="77" width="59" height="39" rx="4" fill="#0092CC"/>
<circle cx="127" cy="91" r="6" fill="#0092CC"/>
<rect x="112" y="102" width="29" height="1" fill="#0092CC"/>
<rect opacity="0.15" x="165" y="77" width="58" height="39" rx="4" fill="#0092CC"/>
<circle cx="194" cy="91" r="6" fill="#0092CC"/>
<rect x="179" y="102" width="28" height="1" fill="#0092CC"/>
<rect x="48" y="105" width="23" height="1" fill="#0092CC"/>
<rect x="115" y="105" width="22" height="1" fill="#0092CC"/>
<rect x="182" y="105" width="22" height="1" fill="#0092CC"/>
<rect opacity="0.15" x="233" y="77" width="57" height="39" rx="4" fill="#0092CC"/>
<circle cx="262" cy="91" r="6" fill="#0092CC"/>
<rect x="247" y="102" width="27" height="1" fill="#0092CC"/>
<rect x="249" y="105" width="22" height="1" fill="#0092CC"/>
<rect opacity="0.15" x="30" y="124" width="58" height="39" rx="4" fill="#0092CC"/>
<circle cx="59" cy="138" r="6" fill="#0092CC"/>
<rect x="45" y="149" width="28" height="1" fill="#0092CC"/>
<rect opacity="0.15" x="97" y="124" width="59" height="39" rx="4" fill="#0092CC"/>
<circle cx="127" cy="138" r="6" fill="#0092CC"/>
<rect x="112" y="149" width="29" height="1" fill="#0092CC"/>
<rect opacity="0.15" x="165" y="124" width="58" height="39" rx="4" fill="#0092CC"/>
<circle cx="194" cy="138" r="6" fill="#0092CC"/>
<rect x="179" y="149" width="28" height="1" fill="#0092CC"/>
<rect x="48" y="152" width="23" height="1" fill="#0092CC"/>
<rect x="115" y="152" width="22" height="1" fill="#0092CC"/>
<rect x="182" y="152" width="22" height="1" fill="#0092CC"/>
<rect opacity="0.15" x="233" y="124" width="57" height="39" rx="4" fill="#0092CC"/>
<circle cx="262" cy="138" r="6" fill="#0092CC"/>
<rect x="247" y="149" width="27" height="1" fill="#0092CC"/>
<rect x="249" y="152" width="22" height="1" fill="#0092CC"/>
<rect opacity="0.15" x="30" y="171" width="58" height="39" rx="4" fill="#0092CC"/>
<circle cx="59" cy="185" r="6" fill="#0092CC"/>
<rect x="45" y="196" width="28" height="1" fill="#0092CC"/>
<rect opacity="0.15" x="97" y="171" width="59" height="39" rx="4" fill="#0092CC"/>
<circle cx="127" cy="185" r="6" fill="#0092CC"/>
<rect x="112" y="196" width="29" height="1" fill="#0092CC"/>
<rect opacity="0.15" x="165" y="171" width="58" height="39" rx="4" fill="#0092CC"/>
<circle cx="194" cy="185" r="6" fill="#0092CC"/>
<rect x="179" y="196" width="28" height="1" fill="#0092CC"/>
<rect x="48" y="199" width="23" height="1" fill="#0092CC"/>
<rect x="115" y="199" width="22" height="1" fill="#0092CC"/>
<rect x="182" y="199" width="22" height="1" fill="#0092CC"/>
<rect opacity="0.15" x="233" y="171" width="57" height="39" rx="4" fill="#0092CC"/>
<circle cx="262" cy="185" r="6" fill="#0092CC"/>
<rect x="247" y="196" width="27" height="1" fill="#0092CC"/>
<rect x="249" y="199" width="22" height="1" fill="#0092CC"/>
</svg>
