<svg width="320" height="240" viewBox="0 0 320 240" fill="none" xmlns="http://www.w3.org/2000/svg">
<rect width="320" height="240" fill="white"/>
<g opacity="0.15" filter="url(#filter0_d)">
<rect x="30" y="30" width="78" height="52" rx="4" fill="#0092CC"/>
</g>
<circle cx="69" cy="48" r="9" fill="#0092CC"/>
<rect x="50" y="62" width="38" height="1" fill="#0092CC"/>
<rect x="50" y="65" width="38" height="1" fill="#0092CC"/>
<rect x="50" y="68" width="38" height="1" fill="#0092CC"/>
<rect x="56" y="71" width="26" height="1" fill="#0092CC"/>
<g opacity="0.15" filter="url(#filter1_d)">
<rect x="121" y="30" width="78" height="52" rx="4" fill="#0092CC"/>
</g>
<circle cx="160" cy="48" r="9" fill="#0092CC"/>
<rect x="140" y="63" width="39" height="1" fill="#0092CC"/>
<rect x="140" y="66" width="39" height="1" fill="#0092CC"/>
<rect x="140" y="69" width="39" height="1" fill="#0092CC"/>
<rect x="147" y="72" width="25" height="1" fill="#0092CC"/>
<g opacity="0.15" filter="url(#filter2_d)">
<rect x="30" y="94" width="78" height="52" rx="4" fill="#0092CC"/>
</g>
<circle cx="69" cy="111" r="9" fill="#0092CC"/>
<rect x="50" y="126" width="38" height="1" fill="#0092CC"/>
<rect x="50" y="129" width="38" height="1" fill="#0092CC"/>
<rect x="50" y="132" width="38" height="1" fill="#0092CC"/>
<rect x="56" y="135" width="26" height="1" fill="#0092CC"/>
<g opacity="0.15" filter="url(#filter3_d)">
<rect x="121" y="94" width="78" height="52" rx="4" fill="#0092CC"/>
</g>
<circle cx="160" cy="111" r="9" fill="#0092CC"/>
<rect x="140" y="127" width="39" height="1" fill="#0092CC"/>
<rect x="140" y="130" width="39" height="1" fill="#0092CC"/>
<rect x="140" y="133" width="39" height="1" fill="#0092CC"/>
<rect x="147" y="136" width="25" height="1" fill="#0092CC"/>
<g opacity="0.15" filter="url(#filter4_d)">
<rect x="212" y="30" width="78" height="52" rx="4" fill="#0092CC"/>
</g>
<circle cx="251" cy="48" r="9" fill="#0092CC"/>
<rect x="231" y="64" width="38" height="1" fill="#0092CC"/>
<rect x="231" y="67" width="38" height="1" fill="#0092CC"/>
<rect x="231" y="70" width="38" height="1" fill="#0092CC"/>
<rect x="237" y="73" width="26" height="1" fill="#0092CC"/>
<g opacity="0.15" filter="url(#filter5_d)">
<rect x="212" y="94" width="78" height="52" rx="4" fill="#0092CC"/>
</g>
<circle cx="251" cy="111" r="9" fill="#0092CC"/>
<rect x="231" y="128" width="38" height="1" fill="#0092CC"/>
<rect x="231" y="131" width="38" height="1" fill="#0092CC"/>
<rect x="231" y="134" width="38" height="1" fill="#0092CC"/>
<rect x="237" y="137" width="26" height="1" fill="#0092CC"/>
<g opacity="0.15" filter="url(#filter6_d)">
<rect x="30" y="158" width="78" height="52" rx="4" fill="#0092CC"/>
</g>
<circle cx="69" cy="175" r="9" fill="#0092CC"/>
<rect x="50" y="190" width="38" height="1" fill="#0092CC"/>
<rect x="50" y="193" width="38" height="1" fill="#0092CC"/>
<rect x="50" y="196" width="38" height="1" fill="#0092CC"/>
<rect x="56" y="199" width="26" height="1" fill="#0092CC"/>
<g opacity="0.15" filter="url(#filter7_d)">
<rect x="121" y="158" width="78" height="52" rx="4" fill="#0092CC"/>
</g>
<circle cx="160" cy="175" r="9" fill="#0092CC"/>
<rect x="140" y="191" width="39" height="1" fill="#0092CC"/>
<rect x="140" y="194" width="39" height="1" fill="#0092CC"/>
<rect x="140" y="197" width="39" height="1" fill="#0092CC"/>
<rect x="147" y="200" width="25" height="1" fill="#0092CC"/>
<g opacity="0.15" filter="url(#filter8_d)">
<rect x="212" y="158" width="78" height="52" rx="4" fill="#0092CC"/>
</g>
<circle cx="251" cy="175" r="9" fill="#0092CC"/>
<rect x="231" y="192" width="38" height="1" fill="#0092CC"/>
<rect x="231" y="195" width="38" height="1" fill="#0092CC"/>
<rect x="231" y="198" width="38" height="1" fill="#0092CC"/>
<rect x="237" y="201" width="26" height="1" fill="#0092CC"/>
<defs>
<filter id="filter0_d" x="10" y="20" width="118" height="92" filterUnits="userSpaceOnUse" color-interpolation-filters="sRGB">
<feFlood flood-opacity="0" result="BackgroundImageFix"/>
<feColorMatrix in="SourceAlpha" type="matrix" values="0 0 0 0 0 0 0 0 0 0 0 0 0 0 0 0 0 0 127 0"/>
<feOffset dy="10"/>
<feGaussianBlur stdDeviation="10"/>
<feColorMatrix type="matrix" values="0 0 0 0 0 0 0 0 0 0 0 0 0 0 0 0 0 0 0.05 0"/>
<feBlend mode="normal" in2="BackgroundImageFix" result="effect1_dropShadow"/>
<feBlend mode="normal" in="SourceGraphic" in2="effect1_dropShadow" result="shape"/>
</filter>
<filter id="filter1_d" x="101" y="20" width="118" height="92" filterUnits="userSpaceOnUse" color-interpolation-filters="sRGB">
<feFlood flood-opacity="0" result="BackgroundImageFix"/>
<feColorMatrix in="SourceAlpha" type="matrix" values="0 0 0 0 0 0 0 0 0 0 0 0 0 0 0 0 0 0 127 0"/>
<feOffset dy="10"/>
<feGaussianBlur stdDeviation="10"/>
<feColorMatrix type="matrix" values="0 0 0 0 0 0 0 0 0 0 0 0 0 0 0 0 0 0 0.05 0"/>
<feBlend mode="normal" in2="BackgroundImageFix" result="effect1_dropShadow"/>
<feBlend mode="normal" in="SourceGraphic" in2="effect1_dropShadow" result="shape"/>
</filter>
<filter id="filter2_d" x="10" y="84" width="118" height="92" filterUnits="userSpaceOnUse" color-interpolation-filters="sRGB">
<feFlood flood-opacity="0" result="BackgroundImageFix"/>
<feColorMatrix in="SourceAlpha" type="matrix" values="0 0 0 0 0 0 0 0 0 0 0 0 0 0 0 0 0 0 127 0"/>
<feOffset dy="10"/>
<feGaussianBlur stdDeviation="10"/>
<feColorMatrix type="matrix" values="0 0 0 0 0 0 0 0 0 0 0 0 0 0 0 0 0 0 0.05 0"/>
<feBlend mode="normal" in2="BackgroundImageFix" result="effect1_dropShadow"/>
<feBlend mode="normal" in="SourceGraphic" in2="effect1_dropShadow" result="shape"/>
</filter>
<filter id="filter3_d" x="101" y="84" width="118" height="92" filterUnits="userSpaceOnUse" color-interpolation-filters="sRGB">
<feFlood flood-opacity="0" result="BackgroundImageFix"/>
<feColorMatrix in="SourceAlpha" type="matrix" values="0 0 0 0 0 0 0 0 0 0 0 0 0 0 0 0 0 0 127 0"/>
<feOffset dy="10"/>
<feGaussianBlur stdDeviation="10"/>
<feColorMatrix type="matrix" values="0 0 0 0 0 0 0 0 0 0 0 0 0 0 0 0 0 0 0.05 0"/>
<feBlend mode="normal" in2="BackgroundImageFix" result="effect1_dropShadow"/>
<feBlend mode="normal" in="SourceGraphic" in2="effect1_dropShadow" result="shape"/>
</filter>
<filter id="filter4_d" x="192" y="20" width="118" height="92" filterUnits="userSpaceOnUse" color-interpolation-filters="sRGB">
<feFlood flood-opacity="0" result="BackgroundImageFix"/>
<feColorMatrix in="SourceAlpha" type="matrix" values="0 0 0 0 0 0 0 0 0 0 0 0 0 0 0 0 0 0 127 0"/>
<feOffset dy="10"/>
<feGaussianBlur stdDeviation="10"/>
<feColorMatrix type="matrix" values="0 0 0 0 0 0 0 0 0 0 0 0 0 0 0 0 0 0 0.05 0"/>
<feBlend mode="normal" in2="BackgroundImageFix" result="effect1_dropShadow"/>
<feBlend mode="normal" in="SourceGraphic" in2="effect1_dropShadow" result="shape"/>
</filter>
<filter id="filter5_d" x="192" y="84" width="118" height="92" filterUnits="userSpaceOnUse" color-interpolation-filters="sRGB">
<feFlood flood-opacity="0" result="BackgroundImageFix"/>
<feColorMatrix in="SourceAlpha" type="matrix" values="0 0 0 0 0 0 0 0 0 0 0 0 0 0 0 0 0 0 127 0"/>
<feOffset dy="10"/>
<feGaussianBlur stdDeviation="10"/>
<feColorMatrix type="matrix" values="0 0 0 0 0 0 0 0 0 0 0 0 0 0 0 0 0 0 0.05 0"/>
<feBlend mode="normal" in2="BackgroundImageFix" result="effect1_dropShadow"/>
<feBlend mode="normal" in="SourceGraphic" in2="effect1_dropShadow" result="shape"/>
</filter>
<filter id="filter6_d" x="10" y="148" width="118" height="92" filterUnits="userSpaceOnUse" color-interpolation-filters="sRGB">
<feFlood flood-opacity="0" result="BackgroundImageFix"/>
<feColorMatrix in="SourceAlpha" type="matrix" values="0 0 0 0 0 0 0 0 0 0 0 0 0 0 0 0 0 0 127 0"/>
<feOffset dy="10"/>
<feGaussianBlur stdDeviation="10"/>
<feColorMatrix type="matrix" values="0 0 0 0 0 0 0 0 0 0 0 0 0 0 0 0 0 0 0.05 0"/>
<feBlend mode="normal" in2="BackgroundImageFix" result="effect1_dropShadow"/>
<feBlend mode="normal" in="SourceGraphic" in2="effect1_dropShadow" result="shape"/>
</filter>
<filter id="filter7_d" x="101" y="148" width="118" height="92" filterUnits="userSpaceOnUse" color-interpolation-filters="sRGB">
<feFlood flood-opacity="0" result="BackgroundImageFix"/>
<feColorMatrix in="SourceAlpha" type="matrix" values="0 0 0 0 0 0 0 0 0 0 0 0 0 0 0 0 0 0 127 0"/>
<feOffset dy="10"/>
<feGaussianBlur stdDeviation="10"/>
<feColorMatrix type="matrix" values="0 0 0 0 0 0 0 0 0 0 0 0 0 0 0 0 0 0 0.05 0"/>
<feBlend mode="normal" in2="BackgroundImageFix" result="effect1_dropShadow"/>
<feBlend mode="normal" in="SourceGraphic" in2="effect1_dropShadow" result="shape"/>
</filter>
<filter id="filter8_d" x="192" y="148" width="118" height="92" filterUnits="userSpaceOnUse" color-interpolation-filters="sRGB">
<feFlood flood-opacity="0" result="BackgroundImageFix"/>
<feColorMatrix in="SourceAlpha" type="matrix" values="0 0 0 0 0 0 0 0 0 0 0 0 0 0 0 0 0 0 127 0"/>
<feOffset dy="10"/>
<feGaussianBlur stdDeviation="10"/>
<feColorMatrix type="matrix" values="0 0 0 0 0 0 0 0 0 0 0 0 0 0 0 0 0 0 0.05 0"/>
<feBlend mode="normal" in2="BackgroundImageFix" result="effect1_dropShadow"/>
<feBlend mode="normal" in="SourceGraphic" in2="effect1_dropShadow" result="shape"/>
</filter>
</defs>
</svg>
