<svg width="320" height="240" viewBox="0 0 320 240" fill="none" xmlns="http://www.w3.org/2000/svg">
<rect width="320" height="240" fill="white"/>
<rect opacity="0.15" x="30" y="32" width="76" height="78" rx="4" fill="#0092CC"/>
<rect x="46" y="54" width="44" height="4" fill="#0092CC"/>
<rect x="46" y="64" width="44" height="4" fill="#0092CC"/>
<rect x="46" y="74" width="44" height="4" fill="#0092CC"/>
<rect x="46" y="84" width="44" height="4" fill="#0092CC"/>
<rect opacity="0.15" x="122" y="32" width="76" height="78" rx="4" fill="#0092CC"/>
<rect x="138" y="54" width="44" height="4" fill="#0092CC"/>
<rect x="138" y="64" width="44" height="4" fill="#0092CC"/>
<rect x="138" y="74" width="44" height="4" fill="#0092CC"/>
<rect x="138" y="84" width="44" height="4" fill="#0092CC"/>
<rect opacity="0.15" x="214" y="32" width="76" height="78" rx="4" fill="#0092CC"/>
<rect x="230" y="54" width="44" height="4" fill="#0092CC"/>
<rect x="230" y="64" width="44" height="4" fill="#0092CC"/>
<rect x="230" y="74" width="44" height="4" fill="#0092CC"/>
<rect x="230" y="84" width="44" height="4" fill="#0092CC"/>
<rect opacity="0.15" x="30" y="130" width="76" height="78" rx="4" fill="#0092CC"/>
<rect x="46" y="152" width="44" height="4" fill="#0092CC"/>
<rect x="46" y="162" width="44" height="4" fill="#0092CC"/>
<rect x="46" y="172" width="44" height="4" fill="#0092CC"/>
<rect x="46" y="182" width="44" height="4" fill="#0092CC"/>
<rect opacity="0.15" x="122" y="130" width="76" height="78" rx="4" fill="#0092CC"/>
<rect x="138" y="152" width="44" height="4" fill="#0092CC"/>
<rect x="138" y="162" width="44" height="4" fill="#0092CC"/>
<rect x="138" y="172" width="44" height="4" fill="#0092CC"/>
<rect x="138" y="182" width="44" height="4" fill="#0092CC"/>
<rect opacity="0.15" x="214" y="130" width="76" height="78" rx="4" fill="#0092CC"/>
<rect x="230" y="152" width="44" height="4" fill="#0092CC"/>
<rect x="230" y="162" width="44" height="4" fill="#0092CC"/>
<rect x="230" y="172" width="44" height="4" fill="#0092CC"/>
<rect x="230" y="182" width="44" height="4" fill="#0092CC"/>
</svg>
