<?xml version="1.0" encoding="UTF-8"?>
<svg width="154px" height="110px" viewBox="0 0 154 110" version="1.1" xmlns="http://www.w3.org/2000/svg" xmlns:xlink="http://www.w3.org/1999/xlink">
    <title>sidebar_right</title>
    <g id="sidebar_right" stroke="none" stroke-width="1" fill="none" fill-rule="evenodd">
        <rect fill="#FFFFFF" x="0" y="0" width="154" height="110"></rect>
        <g id="Group-2" transform="translate(12.000000, 29.000000)">
            <rect id="Rectangle" fill="#F3F3F3" x="0" y="0" width="89" height="43"></rect>
            <rect id="Rectangle" fill="#B2B2B2" x="97" y="0" width="34" height="27" rx="2"></rect>
            <rect id="Rectangle" fill="#B2B2B2" x="97" y="35" width="34" height="34" rx="2"></rect>
            <g id="Group" transform="translate(18.000000, 52.000000)" stroke="#D6D6D6" stroke-linecap="square" stroke-width="2">
                <line x1="0" y1="1" x2="54" y2="1" id="Line"></line>
                <line x1="0" y1="6" x2="54" y2="6" id="Line"></line>
                <line x1="0" y1="11" x2="54" y2="11" id="Line"></line>
                <line x1="0" y1="16" x2="32" y2="16" id="Line"></line>
            </g>
        </g>
        <rect id="Rectangle" fill="#9C9C9C" x="0" y="0" width="154" height="20"></rect>
        <path d="M25.157,11.947 C25.3130008,11.947 25.4434995,11.9964995 25.5485,12.0955 C25.6535005,12.1945005 25.706,12.3219992 25.706,12.478 C25.706,12.6280007 25.6535005,12.7524995 25.5485,12.8515 C25.4434995,12.9505005 25.3130008,13 25.157,13 L22.232,13 C22.0759992,13 21.9455005,12.9475005 21.8405,12.8425 C21.7354995,12.7374995 21.683,12.6070008 21.683,12.451 L21.683,7.249 C21.683,7.09299922 21.7369995,6.96250052 21.845,6.8575 C21.9530005,6.75249947 22.0909992,6.7 22.259,6.7 C22.4090007,6.7 22.5379995,6.75249947 22.646,6.8575 C22.7540005,6.96250052 22.808,7.09299922 22.808,7.249 L22.808,11.947 L25.157,11.947 Z M32.537,9.85 C32.537,10.444003 32.4050013,10.9884975 32.141,11.4835 C31.8769987,11.9785025 31.5125023,12.3699986 31.0475,12.658 C30.5824977,12.9460014 30.0590029,13.09 29.477,13.09 C28.8949971,13.09 28.3715023,12.9460014 27.9065,12.658 C27.4414977,12.3699986 27.0785013,11.9785025 26.8175,11.4835 C26.5564987,10.9884975 26.426,10.444003 26.426,9.85 C26.426,9.25599703 26.5564987,8.71150247 26.8175,8.2165 C27.0785013,7.72149752 27.4414977,7.33000144 27.9065,7.042 C28.3715023,6.75399856 28.8949971,6.61 29.477,6.61 C30.0590029,6.61 30.5824977,6.75399856 31.0475,7.042 C31.5125023,7.33000144 31.8769987,7.72149752 32.141,8.2165 C32.4050013,8.71150247 32.537,9.25599703 32.537,9.85 Z M31.367,9.85 C31.367,9.44799799 31.2860008,9.08350163 31.124,8.7565 C30.9619992,8.42949836 30.7370014,8.17000096 30.449,7.978 C30.1609986,7.78599904 29.8370018,7.69 29.477,7.69 C29.1109982,7.69 28.7855014,7.78449905 28.5005,7.9735 C28.2154986,8.16250094 27.9935008,8.42199835 27.8345,8.752 C27.6754992,9.08200165 27.596,9.44799799 27.596,9.85 C27.596,10.252002 27.6754992,10.6179983 27.8345,10.948 C27.9935008,11.2780016 28.2154986,11.5374991 28.5005,11.7265 C28.7855014,11.9155009 29.1109982,12.01 29.477,12.01 C29.8370018,12.01 30.1609986,11.914001 30.449,11.722 C30.7370014,11.529999 30.9619992,11.2705016 31.124,10.9435 C31.2860008,10.6164984 31.367,10.252002 31.367,9.85 Z M38.216,9.598 C38.3720008,9.598 38.5009995,9.65049947 38.603,9.7555 C38.7050005,9.86050052 38.756,9.99099922 38.756,10.147 L38.756,12.055 C38.756,12.265001 38.6630009,12.4269994 38.477,12.541 C37.8889971,12.9070018 37.2440035,13.09 36.542,13.09 C35.947997,13.09 35.3990025,12.9445015 34.895,12.6535 C34.3909975,12.3624985 33.9920015,11.9695025 33.698,11.4745 C33.4039985,10.9794975 33.257,10.4380029 33.257,9.85 C33.257,9.26199706 33.4039985,8.72050247 33.698,8.2255 C33.9920015,7.73049752 34.3909975,7.33750145 34.895,7.0465 C35.3990025,6.75549854 35.947997,6.61 36.542,6.61 C37.136003,6.61 37.6519978,6.7299988 38.09,6.97 C38.1800004,7.01800024 38.2474998,7.08099961 38.2925,7.159 C38.3375002,7.23700039 38.36,7.32099955 38.36,7.411 C38.36,7.56100075 38.3105005,7.69149944 38.2115,7.8025 C38.1124995,7.91350055 37.9910007,7.969 37.847,7.969 C37.757,7.969 37.6580005,7.94500024 37.55,7.897 C37.2259984,7.75899931 36.8900017,7.69 36.542,7.69 C36.1579981,7.69 35.8040016,7.78749902 35.48,7.9825 C35.1559984,8.17750097 34.8995009,8.43999835 34.7105,8.77 C34.5214991,9.10000165 34.427,9.45999805 34.427,9.85 C34.427,10.2400019 34.5214991,10.5999983 34.7105,10.93 C34.8995009,11.2600016 35.1559984,11.522499 35.48,11.7175 C35.8040016,11.912501 36.1579981,12.01 36.542,12.01 C36.7100008,12.01 36.889999,11.9950001 37.082,11.965 C37.274001,11.9349998 37.4419993,11.8960002 37.586,11.848 L37.586,10.678 L36.74,10.678 C36.5839992,10.678 36.4535005,10.6270005 36.3485,10.525 C36.2434995,10.4229995 36.191,10.2940008 36.191,10.138 C36.191,9.98199922 36.2434995,9.85300051 36.3485,9.751 C36.4535005,9.64899949 36.5839992,9.598 36.74,9.598 L38.216,9.598 Z M45.632,9.85 C45.632,10.444003 45.5000013,10.9884975 45.236,11.4835 C44.9719987,11.9785025 44.6075023,12.3699986 44.1425,12.658 C43.6774977,12.9460014 43.1540029,13.09 42.572,13.09 C41.9899971,13.09 41.4665023,12.9460014 41.0015,12.658 C40.5364977,12.3699986 40.1735013,11.9785025 39.9125,11.4835 C39.6514987,10.9884975 39.521,10.444003 39.521,9.85 C39.521,9.25599703 39.6514987,8.71150247 39.9125,8.2165 C40.1735013,7.72149752 40.5364977,7.33000144 41.0015,7.042 C41.4665023,6.75399856 41.9899971,6.61 42.572,6.61 C43.1540029,6.61 43.6774977,6.75399856 44.1425,7.042 C44.6075023,7.33000144 44.9719987,7.72149752 45.236,8.2165 C45.5000013,8.71150247 45.632,9.25599703 45.632,9.85 Z M44.462,9.85 C44.462,9.44799799 44.3810008,9.08350163 44.219,8.7565 C44.0569992,8.42949836 43.8320014,8.17000096 43.544,7.978 C43.2559986,7.78599904 42.9320018,7.69 42.572,7.69 C42.2059982,7.69 41.8805014,7.78449905 41.5955,7.9735 C41.3104986,8.16250094 41.0885008,8.42199835 40.9295,8.752 C40.7704992,9.08200165 40.691,9.44799799 40.691,9.85 C40.691,10.252002 40.7704992,10.6179983 40.9295,10.948 C41.0885008,11.2780016 41.3104986,11.5374991 41.5955,11.7265 C41.8805014,11.9155009 42.2059982,12.01 42.572,12.01 C42.9320018,12.01 43.2559986,11.914001 43.544,11.722 C43.8320014,11.529999 44.0569992,11.2705016 44.219,10.9435 C44.3810008,10.6164984 44.462,10.252002 44.462,9.85 Z" id="LOGO" fill="#FFFFFF" fill-rule="nonzero"></path>
        <path d="M89.12,7.4 C89.2480006,7.4 89.3519996,7.44266624 89.432,7.528 C89.5120004,7.61333376 89.552,7.71999936 89.552,7.848 L89.552,12.512 C89.552,12.6506674 89.5053338,12.7666662 89.412,12.86 C89.3186662,12.9533338 89.2026674,13 89.064,13 C88.989333,13 88.9160004,12.9880001 88.844,12.964 C88.7719996,12.9399999 88.7200002,12.9066669 88.688,12.864 L85.752,9.136 L85.752,12.552 C85.752,12.6800006 85.7106671,12.7866662 85.628,12.872 C85.5453329,12.9573338 85.437334,13 85.304,13 C85.1759994,13 85.0720004,12.9573338 84.992,12.872 C84.9119996,12.7866662 84.872,12.6800006 84.872,12.552 L84.872,7.888 C84.872,7.74933264 84.9186662,7.6333338 85.012,7.54 C85.1053338,7.4466662 85.2213326,7.4 85.36,7.4 C85.4400004,7.4 85.5186663,7.41599984 85.596,7.448 C85.6733337,7.48000016 85.7306665,7.5226664 85.768,7.576 L88.68,11.288 L88.68,7.848 C88.68,7.71999936 88.7213329,7.61333376 88.804,7.528 C88.8866671,7.44266624 88.9919994,7.4 89.12,7.4 Z M95.144,12.376 C95.1706668,12.4453337 95.184,12.509333 95.184,12.568 C95.184,12.7066674 95.1386671,12.8199996 95.048,12.908 C94.9573329,12.9960004 94.8533339,13.04 94.736,13.04 C94.6399995,13.04 94.5533337,13.010667 94.476,12.952 C94.3986663,12.893333 94.3386669,12.8133338 94.296,12.712 L93.88,11.744 L91.496,11.744 L91.08,12.72 C91.0426665,12.8213338 90.9853337,12.8999997 90.908,12.956 C90.8306663,13.0120003 90.7466671,13.04 90.656,13.04 C90.5173326,13.04 90.4120004,13.002667 90.34,12.928 C90.2679996,12.853333 90.232,12.7520006 90.232,12.624 C90.232,12.5759998 90.2399999,12.5253336 90.256,12.472 L92.248,7.688 C92.2906669,7.5813328 92.3546662,7.49866696 92.44,7.44 C92.5253338,7.38133304 92.6213328,7.35733328 92.728,7.368 C92.8240005,7.368 92.9133329,7.39599972 92.996,7.452 C93.0786671,7.50800028 93.1386665,7.58666616 93.176,7.688 L95.144,12.376 Z M91.888,10.824 L93.488,10.824 L92.68,8.952 L91.888,10.824 Z M99.952,7.384 C100.085334,7.384 100.201333,7.42933288 100.3,7.52 C100.398667,7.61066712 100.448,7.71999936 100.448,7.848 C100.448,7.91733368 100.432,7.98933296 100.4,8.064 L98.424,12.688 C98.3759998,12.7893338 98.3093338,12.8666664 98.224,12.92 C98.1386662,12.9733336 98.0480005,13 97.952,13 C97.8613329,12.9946666 97.7773337,12.9666669 97.7,12.916 C97.6226663,12.8653331 97.5626669,12.7920005 97.52,12.696 L95.544,8.056 C95.5173332,8.0026664 95.504,7.9360004 95.504,7.856 C95.504,7.71199928 95.5573328,7.59600044 95.664,7.508 C95.7706672,7.41999956 95.8799994,7.376 95.992,7.376 C96.0826671,7.376 96.1679996,7.4026664 96.248,7.456 C96.3280004,7.5093336 96.3893331,7.58666616 96.432,7.688 L98.04,11.472 L99.512,7.688 C99.5546669,7.59199952 99.6159996,7.5173336 99.696,7.464 C99.7760004,7.4106664 99.8613329,7.384 99.952,7.384 Z M102.288,12.512 C102.288,12.6506674 102.237334,12.7666662 102.136,12.86 C102.034666,12.9533338 101.917334,13 101.784,13 C101.639999,13 101.521334,12.9533338 101.428,12.86 C101.334666,12.7666662 101.288,12.6506674 101.288,12.512 L101.288,7.888 C101.288,7.74933264 101.336,7.6333338 101.432,7.54 C101.528,7.4466662 101.650666,7.4 101.8,7.4 C101.933334,7.4 102.048,7.4466662 102.144,7.54 C102.24,7.6333338 102.288,7.74933264 102.288,7.888 L102.288,12.512 Z M107.616,9.976 C107.754667,9.976 107.869333,10.0226662 107.96,10.116 C108.050667,10.2093338 108.096,10.3253326 108.096,10.464 L108.096,12.16 C108.096,12.3466676 108.013334,12.4906662 107.848,12.592 C107.325331,12.917335 106.752003,13.08 106.128,13.08 C105.599997,13.08 105.112002,12.950668 104.664,12.692 C104.215998,12.433332 103.861335,12.0840022 103.6,11.644 C103.338665,11.2039978 103.208,10.7226693 103.208,10.2 C103.208,9.67733072 103.338665,9.1960022 103.6,8.756 C103.861335,8.3159978 104.215998,7.96666796 104.664,7.708 C105.112002,7.44933204 105.599997,7.32 106.128,7.32 C106.656003,7.32 107.114665,7.4266656 107.504,7.64 C107.584,7.68266688 107.644,7.73866632 107.684,7.808 C107.724,7.87733368 107.744,7.9519996 107.744,8.032 C107.744,8.165334 107.7,8.28133284 107.612,8.38 C107.524,8.47866716 107.416001,8.528 107.288,8.528 C107.208,8.528 107.12,8.50666688 107.024,8.464 C106.735999,8.34133272 106.437335,8.28 106.128,8.28 C105.786665,8.28 105.472001,8.3666658 105.184,8.54 C104.895999,8.7133342 104.668001,8.9466652 104.5,9.24 C104.331999,9.5333348 104.248,9.8533316 104.248,10.2 C104.248,10.5466684 104.331999,10.8666652 104.5,11.16 C104.668001,11.4533348 104.895999,11.6866658 105.184,11.86 C105.472001,12.0333342 105.786665,12.12 106.128,12.12 C106.277334,12.12 106.437332,12.1066668 106.608,12.08 C106.778668,12.0533332 106.927999,12.0186669 107.056,11.976 L107.056,10.936 L106.304,10.936 C106.165333,10.936 106.049334,10.8906671 105.956,10.8 C105.862666,10.7093329 105.816,10.5946674 105.816,10.456 C105.816,10.3173326 105.862666,10.2026671 105.956,10.112 C106.049334,10.0213329 106.165333,9.976 106.304,9.976 L107.616,9.976 Z M113.448,12.376 C113.474667,12.4453337 113.488,12.509333 113.488,12.568 C113.488,12.7066674 113.442667,12.8199996 113.352,12.908 C113.261333,12.9960004 113.157334,13.04 113.04,13.04 C112.944,13.04 112.857334,13.010667 112.78,12.952 C112.702666,12.893333 112.642667,12.8133338 112.6,12.712 L112.184,11.744 L109.8,11.744 L109.384,12.72 C109.346666,12.8213338 109.289334,12.8999997 109.212,12.956 C109.134666,13.0120003 109.050667,13.04 108.96,13.04 C108.821333,13.04 108.716,13.002667 108.644,12.928 C108.572,12.853333 108.536,12.7520006 108.536,12.624 C108.536,12.5759998 108.544,12.5253336 108.56,12.472 L110.552,7.688 C110.594667,7.5813328 110.658666,7.49866696 110.744,7.44 C110.829334,7.38133304 110.925333,7.35733328 111.032,7.368 C111.128,7.368 111.217333,7.39599972 111.3,7.452 C111.382667,7.50800028 111.442666,7.58666616 111.48,7.688 L113.448,12.376 Z M110.192,10.824 L111.792,10.824 L110.984,8.952 L110.192,10.824 Z M117.848,7.4 C117.992001,7.4 118.109333,7.44266624 118.2,7.528 C118.290667,7.61333376 118.336,7.72533264 118.336,7.864 C118.336,8.00266736 118.290667,8.11333292 118.2,8.196 C118.109333,8.27866708 117.992001,8.32 117.848,8.32 L116.592,8.32 L116.592,12.512 C116.592,12.6506674 116.541334,12.7666662 116.44,12.86 C116.338666,12.9533338 116.213334,13 116.064,13 C115.914666,13 115.792,12.9533338 115.696,12.86 C115.6,12.7666662 115.552,12.6506674 115.552,12.512 L115.552,8.32 L114.296,8.32 C114.151999,8.32 114.034667,8.27733376 113.944,8.192 C113.853333,8.10666624 113.808,7.99466736 113.808,7.856 C113.808,7.722666 113.854666,7.61333376 113.948,7.528 C114.041334,7.44266624 114.157333,7.4 114.296,7.4 L117.848,7.4 Z M120.176,12.512 C120.176,12.6506674 120.125334,12.7666662 120.024,12.86 C119.922666,12.9533338 119.805334,13 119.672,13 C119.527999,13 119.409334,12.9533338 119.316,12.86 C119.222666,12.7666662 119.176,12.6506674 119.176,12.512 L119.176,7.888 C119.176,7.74933264 119.224,7.6333338 119.32,7.54 C119.416,7.4466662 119.538666,7.4 119.688,7.4 C119.821334,7.4 119.936,7.4466662 120.032,7.54 C120.128,7.6333338 120.176,7.74933264 120.176,7.888 L120.176,12.512 Z M126.528,10.2 C126.528,10.7280026 126.410668,11.2119978 126.176,11.652 C125.941332,12.0920022 125.617335,12.4399987 125.204,12.696 C124.790665,12.9520013 124.325336,13.08 123.808,13.08 C123.290664,13.08 122.825335,12.9520013 122.412,12.696 C121.998665,12.4399987 121.676001,12.0920022 121.444,11.652 C121.211999,11.2119978 121.096,10.7280026 121.096,10.2 C121.096,9.67199736 121.211999,9.1880022 121.444,8.748 C121.676001,8.3079978 121.998665,7.96000128 122.412,7.704 C122.825335,7.44799872 123.290664,7.32 123.808,7.32 C124.325336,7.32 124.790665,7.44799872 125.204,7.704 C125.617335,7.96000128 125.941332,8.3079978 126.176,8.748 C126.410668,9.1880022 126.528,9.67199736 126.528,10.2 Z M125.488,10.2 C125.488,9.84266488 125.416001,9.51866812 125.272,9.228 C125.127999,8.93733188 124.928001,8.70666752 124.672,8.536 C124.415999,8.36533248 124.128002,8.28 123.808,8.28 C123.482665,8.28 123.193335,8.36399916 122.94,8.532 C122.686665,8.70000084 122.489334,8.9306652 122.348,9.224 C122.206666,9.5173348 122.136,9.84266488 122.136,10.2 C122.136,10.5573351 122.206666,10.8826652 122.348,11.176 C122.489334,11.4693348 122.686665,11.6999992 122.94,11.868 C123.193335,12.0360008 123.482665,12.12 123.808,12.12 C124.128002,12.12 124.415999,12.0346675 124.672,11.864 C124.928001,11.6933325 125.127999,11.4626681 125.272,11.172 C125.416001,10.8813319 125.488,10.5573351 125.488,10.2 Z M131.696,7.4 C131.824001,7.4 131.928,7.44266624 132.008,7.528 C132.088,7.61333376 132.128,7.71999936 132.128,7.848 L132.128,12.512 C132.128,12.6506674 132.081334,12.7666662 131.988,12.86 C131.894666,12.9533338 131.778667,13 131.64,13 C131.565333,13 131.492,12.9880001 131.42,12.964 C131.348,12.9399999 131.296,12.9066669 131.264,12.864 L128.328,9.136 L128.328,12.552 C128.328,12.6800006 128.286667,12.7866662 128.204,12.872 C128.121333,12.9573338 128.013334,13 127.88,13 C127.751999,13 127.648,12.9573338 127.568,12.872 C127.488,12.7866662 127.448,12.6800006 127.448,12.552 L127.448,7.888 C127.448,7.74933264 127.494666,7.6333338 127.588,7.54 C127.681334,7.4466662 127.797333,7.4 127.936,7.4 C128.016,7.4 128.094666,7.41599984 128.172,7.448 C128.249334,7.48000016 128.306666,7.5226664 128.344,7.576 L131.256,11.288 L131.256,7.848 C131.256,7.71999936 131.297333,7.61333376 131.38,7.528 C131.462667,7.44266624 131.567999,7.4 131.696,7.4 Z" id="NAVIGATION" fill="#FFFFFF" fill-rule="nonzero"></path>
    </g>
</svg>