<?xml version="1.0" encoding="UTF-8"?>
<svg width="14px" height="19px" viewBox="0 0 14 19" version="1.1" xmlns="http://www.w3.org/2000/svg" xmlns:xlink="http://www.w3.org/1999/xlink">
    <title>account</title>
    <g id="basket" stroke="none" stroke-width="1" fill="none" fill-rule="evenodd">
        <g id="Background_003" transform="translate(-1665.000000, -28.000000)" fill="#FFFFFF" fill-rule="nonzero">
            <g id="user" transform="translate(1425.000000, 26.000000)">
                <g id="account" transform="translate(240.000000, 2.000000)">
                    <path d="M6.79578242,8.88539741 C8.83052338,8.88539741 10.4801621,6.89635324 10.4801621,4.44272466 C10.4801621,1.98904417 9.9385615,0 6.79578242,0 C3.65300334,0 3.11129813,1.98904417 3.11129813,4.44272466 C3.11129813,6.89635324 4.76093689,8.88539741 6.79578242,8.88539741 Z" id="Path"></path>
                    <path d="M13.9924256,16.3382494 C13.9237827,12.0909407 13.3581229,10.8806883 9.02951608,10.1146026 C9.02951608,10.1146026 8.42019838,10.8759944 7,10.8759944 C5.57980162,10.8759944 4.97037872,10.1146026 4.97037872,10.1146026 C0.689006613,10.8723321 0.0889464983,12.0646342 0.0100465885,16.2002694 C0.00357679591,16.5379722 0,16.7258314 0,16.9627444 C0,16.9627444 1.03053802,19 7,19 C12.9693568,19 14,16.9627444 14,16.9627444 C14,16.8105279 13.9967914,16.6099282 13.9924256,16.3382494 Z" id="Path"></path>
                </g>
            </g>
        </g>
    </g>
</svg>