<svg xmlns="http://www.w3.org/2000/svg" xmlns:xlink="http://www.w3.org/1999/xlink" width="148px" height="148px" viewBox="0 0 148 148"><title>email</title><g id="Redesign" stroke="none" stroke-width="1" fill="none" fill-rule="evenodd"><g id="Scan" transform="translate(-340.000000, -4561.000000)" fill="#FFFFFF"><g id="contact" transform="translate(0.000000, 4363.000000)"><g id="content" transform="translate(340.000000, 158.000000)"><g id="email" transform="translate(0.000000, 40.000000)"><rect id="Rectangle" opacity="0" x="0" y="0" width="148" height="148"></rect><path d="M101.935547,48 L45.0644531,48 C41.7246914,48 39,50.7445846 39,54.1153846 L39,94.8846154 C39,98.244 41.7125625,101 45.0644531,101 L101.935547,101 C105.266953,101 108,98.2646564 108,94.8846154 L108,54.1153846 C108,50.756 105.287437,48 101.935547,48 Z M101.098113,52.0769231 L73.6285664,79.7773051 L45.9214277,52.0769231 L101.098113,52.0769231 Z M43.0429688,94.0404205 L43.0429688,54.9401462 L62.5137715,74.4060949 L43.0429688,94.0404205 Z M45.901752,96.9230769 L65.3848184,77.2763846 L72.2116406,84.1014256 C73.0019062,84.8915333 74.2771934,84.8889513 75.0642246,84.0951744 L81.7207031,77.3827923 L101.098248,96.9230769 L45.901752,96.9230769 Z M103.957031,94.0402846 L84.5794863,74.5 L103.957031,54.9595795 L103.957031,94.0402846 Z" id="Shape" fill-rule="nonzero"></path></g></g></g></g></g></svg>