<svg xmlns="http://www.w3.org/2000/svg" xmlns:xlink="http://www.w3.org/1999/xlink" width="148px" height="148px" viewBox="0 0 148 148"><title>comment</title><g id="Redesign" stroke="none" stroke-width="1" fill="none" fill-rule="evenodd"><g id="Scan" transform="translate(-1347.000000, -4561.000000)" fill="#FFFFFF"><g id="contact" transform="translate(0.000000, 4363.000000)"><g id="content" transform="translate(340.000000, 158.000000)"><g id="comment" transform="translate(1007.000000, 40.000000)"><rect id="Rectangle" opacity="0" x="0" y="0" width="148" height="148"></rect><g transform="translate(38.000000, 41.000000)" fill-rule="nonzero"><path d="M62.1013184,0 L9.89868161,0 C4.4406738,0 0,4.42361471 0,9.86260744 L0,41.6931058 C0,47.1198387 4.42133786,51.5364477 9.86352536,51.5557133 L9.86352536,66 L30.6975586,51.5557133 L62.1013184,51.5557133 C67.5593262,51.5557133 72,47.1312227 72,41.6931058 L72,9.86260744 C72,4.42361471 67.5593262,0 62.1013184,0 Z M67.78125,41.6931058 C67.78125,44.8132364 65.2333007,47.3523379 62.1013184,47.3523379 L29.3739257,47.3523379 L14.0822754,57.9544767 L14.0822754,47.3523379 L9.89868161,47.3523379 C6.76669927,47.3523379 4.21875,44.8132364 4.21875,41.6931058 L4.21875,9.86260744 C4.21875,6.74160118 6.76669927,4.20337544 9.89868161,4.20337544 L62.1013184,4.20337544 C65.2333007,4.20337544 67.78125,6.74160118 67.78125,9.86260744 L67.78125,41.6931058 Z" id="Shape"></path><polygon id="Path" points="19 15 52.459082 15 52.459082 19.2033754 19 19.2033754"></polygon><polygon id="Path" points="19 24 52.459082 24 52.459082 28.2033754 19 28.2033754"></polygon><polygon id="Path" points="19 33 52.459082 33 52.459082 37.2033754 19 37.2033754"></polygon></g></g></g></g></g></g></svg>