<svg xmlns="http://www.w3.org/2000/svg" xmlns:xlink="http://www.w3.org/1999/xlink" width="148px" height="148px" viewBox="0 0 148 148"><title>clipboard</title><g id="Redesign" stroke="none" stroke-width="1" fill="none" fill-rule="evenodd"><g id="Scan" transform="translate(-674.000000, -4561.000000)" fill="#FFFFFF"><g id="contact" transform="translate(0.000000, 4363.000000)"><g id="content" transform="translate(340.000000, 158.000000)"><g id="clipboard" transform="translate(334.000000, 40.000000)"><rect id="Rectangle" opacity="0" x="0" y="0" width="148" height="148"></rect><path d="M94.285628,45.3095551 L87.7496066,45.3095551 L87.7496066,42.6953125 C87.7496066,41.2065735 86.5473143,40 85.0638578,40 L63.935093,40 C62.4516366,40 61.2493442,41.2065735 61.2493442,42.6953125 L61.2493442,45.3095551 L54.714372,45.3095551 C51.0120254,45.3095551 48,48.3323059 48,52.0478364 L48,102.261719 C48,105.977249 51.0120254,109 54.714372,109 L94.285628,109 C97.9879748,109 101,105.977249 101,102.261719 L101,52.0478364 C101,48.3323059 97.9874502,45.3095551 94.285628,45.3095551 L94.285628,45.3095551 Z M82.378109,45.390625 L82.378109,50.6196365 L66.6203173,50.6196365 C66.6203173,48.8282012 66.6203173,47.3484116 66.6203173,45.390625 L82.378109,45.390625 Z M95.6285024,102.261719 C95.6285024,103.005035 95.0257827,103.609375 94.285628,103.609375 L54.714372,103.609375 C53.9736928,103.609375 53.3714976,103.005035 53.3714976,102.261719 L53.3714976,52.0478364 C53.3714976,51.3050461 53.9736928,50.7001801 54.714372,50.7001801 L61.2488197,50.7001801 L61.2488197,53.314949 C61.2488197,54.803688 62.4516366,56.0102615 63.9345685,56.0102615 L85.0638578,56.0102615 C86.5467898,56.0102615 87.7496066,54.803688 87.7496066,53.314949 L87.7496066,50.7001801 L94.285628,50.7001801 C95.0257827,50.7001801 95.6285024,51.3050461 95.6285024,52.0478364 L95.6285024,102.261719 Z M86.9622416,71.4704055 C88.0113622,72.523262 88.0113622,74.2299424 86.9622416,75.2822724 L72.8484218,89.4463501 C71.7998259,90.4992065 70.0992013,90.4992065 69.0500806,89.4463501 L62.0361848,82.4074783 C60.9875887,81.3551484 60.9875887,79.648468 62.0361848,78.5956116 C63.0853055,77.5432815 64.7854054,77.5432815 65.834526,78.5956116 L70.9495136,83.7288132 L83.1639004,71.4709321 C84.213021,70.4180756 85.913121,70.4180756 86.9622416,71.4704055 Z" id="Shape" fill-rule="nonzero"></path></g></g></g></g></g></svg>