<svg xmlns="http://www.w3.org/2000/svg" xmlns:xlink="http://www.w3.org/1999/xlink" width="148px" height="148px" viewBox="0 0 148 148"><title>phone-call</title><g id="Redesign" stroke="none" stroke-width="1" fill="none" fill-rule="evenodd"><g id="Scan" transform="translate(-1012.000000, -4561.000000)" fill="#FFFFFF"><g id="contact" transform="translate(0.000000, 4363.000000)"><g id="content" transform="translate(340.000000, 158.000000)"><g id="phone-call" transform="translate(672.000000, 40.000000)"><rect id="Rectangle" opacity="0" x="0" y="0" width="148" height="148"></rect><g id="phone" transform="translate(41.000000, 41.000000)" fill-rule="nonzero"><path d="M52.9793975,41.504112 C51.6057424,40.0758897 49.9488594,39.3122858 48.1928467,39.3122858 C46.4509954,39.3122858 44.779951,40.0617489 43.3496503,41.4899712 L38.8746501,45.9443276 C38.5064539,45.7463562 38.1382577,45.5625257 37.7842229,45.3786951 C37.2744127,45.1241604 36.7929254,44.8837666 36.382245,44.6292319 C32.1904727,41.9707588 28.3810579,38.5062594 24.7274186,34.0236213 C22.9572444,31.7893726 21.7676874,29.9086443 20.9038425,27.9996344 C22.0650767,26.9390733 23.1413426,25.8360898 24.1892856,24.7755288 C24.5858046,24.379586 24.9823236,23.9695024 25.3788426,23.5735596 C28.3527352,20.6039886 28.3527352,16.7576871 25.3788426,13.7881161 L21.5127824,9.92767384 C21.0737792,9.4893086 20.6206146,9.03680254 20.1957728,8.58429649 C19.3460892,7.70756601 18.4539215,6.8025539 17.5334309,5.95410504 C16.1597758,4.59658688 14.5170542,3.87540536 12.7893643,3.87540536 C11.0616744,3.87540536 9.39063,4.59658688 7.9744907,5.95410504 C7.96032931,5.96824586 7.96032931,5.96824586 7.94616791,5.98238667 L3.13129431,10.8326859 C1.31863601,12.6427102 0.284854325,14.8486772 0.0582720373,17.4081646 C-0.281601394,21.5372823 0.936278401,25.3835838 1.87093034,27.9006487 C4.16507599,34.0801845 7.59213309,39.8072143 12.7043959,45.9443276 C18.9070861,53.3399735 26.3701402,59.1801297 34.8952987,63.2951067 C38.1524191,64.8364554 42.4999667,66.6606205 47.3573245,66.9717184 C47.6547138,66.9858592 47.9662644,67 48.2494923,67 C51.520774,67 54.2680843,65.8263124 56.420616,63.4930781 C56.4347774,63.4647964 56.4631002,63.4506556 56.4772616,63.422374 C57.213654,62.5315027 58.0633376,61.7254763 58.9555053,60.8628866 C59.5644452,60.2831132 60.1875465,59.6750582 60.7964864,59.0387216 C62.1984643,57.5822177 62.9348568,55.88532 62.9348568,54.1459999 C62.9348568,52.3925389 62.1843029,50.709782 60.7540022,49.2957006 L52.9793975,41.504112 Z M58.0491762,56.3943893 C58.0350148,56.3943893 58.0350148,56.4085302 58.0491762,56.3943893 C57.4968819,56.9883035 56.9304261,57.5256545 56.3214863,58.1195687 C55.4009957,58.9962992 54.4663438,59.9154521 53.5883374,60.9477315 C52.1580367,62.4749395 50.472831,63.196121 48.2636537,63.196121 C48.0512328,63.196121 47.8246505,63.196121 47.6122296,63.1819802 C43.4062959,62.9133047 39.4977514,61.2729702 36.5663431,59.8730296 C28.5509947,55.9984465 21.5127824,50.4976698 15.6641271,43.5262484 C10.8350921,37.7143738 7.60629448,32.3408644 5.46792415,26.5714122 C4.1509146,23.0503494 3.66942724,20.3070315 3.88184814,17.7192625 C4.02346207,16.0647872 4.66072475,14.6931282 5.83612036,13.5194406 L10.6651554,8.697423 C11.3590636,8.04694555 12.0954561,7.69342519 12.8176871,7.69342519 C13.7098548,7.69342519 14.4320859,8.23077613 14.8852505,8.68328219 C14.8994119,8.697423 14.9135732,8.71156382 14.9277346,8.72570463 C15.7915796,9.53173104 16.6129404,10.3660391 17.4767854,11.2569104 C17.9157886,11.7094164 18.3689531,12.1619225 18.8221177,12.6285694 L22.688178,16.4890116 C24.1892856,17.9879379 24.1892856,19.3737377 22.688178,20.872664 C22.2774976,21.2827477 21.8809786,21.6928313 21.4702982,22.0887741 C20.2807412,23.3048841 19.1478297,24.4361492 17.9157886,25.5391327 C17.8874658,25.5674144 17.859143,25.5815552 17.8449816,25.6098368 C16.6271018,26.8259468 16.8536841,28.0137752 17.1085892,28.8198016 C17.1227505,28.8622241 17.1369119,28.9046465 17.1510733,28.947069 C18.1565322,31.379289 19.5726715,33.6701009 21.7252033,36.399278 L21.7393647,36.4134189 C25.6479091,41.2212957 29.7688745,44.9686115 34.3146816,47.8391967 C34.8952987,48.2068579 35.4900772,48.503815 36.0565329,48.7866313 C36.5663431,49.041166 37.0478304,49.2815598 37.4585108,49.5360944 C37.5151564,49.5643761 37.571802,49.6067985 37.6284476,49.6350801 C38.1099349,49.875474 38.5630995,49.9886005 39.0304255,49.9886005 C40.2058211,49.9886005 40.9422135,49.2532782 41.1829572,49.0128843 L46.0261536,44.1767259 C46.5076409,43.6959382 47.2723562,43.1161648 48.1645239,43.1161648 C49.0425303,43.1161648 49.7647613,43.6676565 50.2037645,44.1484442 C50.2179259,44.162585 50.2179259,44.162585 50.2320873,44.1767259 L58.0350148,51.9683145 C59.4936383,53.4106775 59.4936383,54.895463 58.0491762,56.3943893 Z" id="Shape"></path><path d="M36.2123083,15.9375199 C39.9225932,16.5597157 43.2930047,18.3131767 45.9836694,20.9999314 C48.6743341,23.6866861 50.4161854,27.0521998 51.0534481,30.7570932 C51.2092234,31.6903869 52.0164228,32.3408644 52.9369133,32.3408644 C53.0502045,32.3408644 53.1493342,32.3267236 53.2626254,32.3125827 C54.3105685,32.142893 55.0044767,31.153036 54.83454,30.1066157 C54.0698248,25.6239776 51.9456158,21.5372823 48.7026568,18.2990359 C45.4596979,15.0607894 41.3670553,12.9396673 36.8778937,12.1760633 C35.8299506,12.0063735 34.8528145,12.6992734 34.6687164,13.7315529 C34.4846183,14.7638323 35.1643652,15.7678301 36.2123083,15.9375199 Z" id="Path"></path><path d="M66.9708538,29.555124 C65.7104898,22.1736189 62.2267871,15.4567322 56.8737806,10.1115044 C51.520774,4.76627665 44.7941124,1.28763635 37.4018653,0.0291038899 C36.3680836,-0.154726695 35.3909475,0.552314016 35.2068494,1.58459345 C35.0369126,2.63101371 35.7308209,3.60672989 36.778764,3.79056047 C43.3779731,4.90768479 49.3965651,8.03280473 54.1831159,12.7982591 C58.9696667,17.5778543 62.0851732,23.5877004 63.2039232,30.1773198 C63.3596986,31.1106135 64.166898,31.761091 65.0873885,31.761091 C65.2006796,31.761091 65.2998094,31.7469502 65.4131005,31.7328094 C66.4468822,31.5772604 67.1549519,30.5874034 66.9708538,29.555124 Z" id="Path"></path></g></g></g></g></g></g></svg>