<?xml version="1.0" encoding="UTF-8"?>
<svg id="Layer_2" data-name="Layer 2" xmlns="http://www.w3.org/2000/svg" viewBox="0 0 437 425">
  <defs>
    <style>
      .cls-1, .cls-2, .cls-3 {
        fill: #fff;
      }

      .cls-4 {
        fill: #1a272c;
      }

      .cls-2 {
        font-family: OpenSans-Bold, 'Open Sans';
        font-size: 29.08px;
        font-weight: 700;
      }

      .cls-3 {
        font-family: OpenSans-Medium, 'Open Sans';
        font-size: 22px;
        font-weight: 500;
      }
    </style>
  </defs>
  <g id="ICONS">
    <g>
      <rect class="cls-4" width="437" height="425"/>
      <g>
        <text class="cls-2" transform="translate(94.52 94.91)"><tspan x="0" y="0">JOIN OVER 20,000</tspan><tspan x="24.92" y="34.9">SUBSCRIBERS!</tspan></text>
        <text class="cls-3" transform="translate(93.43 322.62)"><tspan x="0" y="0">Click here to receive the</tspan><tspan x="19.04" y="28">latest security news!</tspan></text>
        <g>
          <path class="cls-1" d="m214.03,166.34c-18.08,0-36.17-.01-54.25.01-4.24,0-8.47.33-12.71.21-.36,0-.85-.13-1.01.29-.18.46.35.6.62.82,2.68,2.29,5.28,4.68,7.96,6.98,8.66,7.39,17.24,14.89,25.83,22.37,4.9,4.26,9.74,8.59,14.65,12.85,7.25,6.29,14.55,12.53,21.81,18.81,1.62,1.4,1.71,1.41,3.38-.04,11.5-10.02,22.99-20.05,34.51-30.05,5.19-4.51,10.43-8.95,15.62-13.46,6.61-5.74,13.18-11.53,19.76-17.3.3-.27.91-.43.78-.9-.16-.56-.79-.38-1.23-.38-4.66-.08-9.32-.2-13.98-.2-20.58-.02-41.16,0-61.74,0Z"/>
          <path class="cls-1" d="m218.39,269.46h0c17.9,0,35.8,0,53.69,0,5.98,0,11.95.02,17.93.04.27,0,.61.15.74-.19.12-.32-.2-.49-.4-.67-.9-.76-1.82-1.5-2.71-2.27-10.41-8.98-20.81-17.97-31.22-26.95-5.78-4.98-11.59-9.92-17.35-14.92-.94-.82-1.66-.85-2.55-.02-1.18,1.08-2.39,2.13-3.63,3.15-4.46,3.69-8.97,7.33-13.37,11.09-.86.74-1.28.87-2.18.12-5.71-4.76-11.5-9.44-17.22-14.2-1.11-.92-1.88-.96-3.01.03-6.32,5.51-12.72,10.91-19.06,16.38-7.06,6.09-14.09,12.21-21.14,18.31-3.45,2.99-6.93,5.95-10.39,8.93-.3.26-.83.49-.63.99.21.51.74.25,1.14.24.89-.02,1.79-.06,2.68-.06,22.89,0,45.78,0,68.67,0Z"/>
          <path class="cls-1" d="m140.28,217.73c0,14.12,0,28.24,0,42.37,0,.71-.03,1.42.08,2.11.08.52-.27,1.31.36,1.51.52.16.95-.5,1.37-.87,6.44-5.58,12.87-11.16,19.3-16.74,10.3-8.95,20.59-17.92,30.88-26.87,1.72-1.5,1.7-1.49-.04-2.96-4.68-3.94-9.37-7.87-14-11.86-11.83-10.21-23.63-20.45-35.44-30.67-.5-.43-.97-.89-1.5-1.28-.6-.44-.92-.31-.92.51,0,1.22-.09,2.44-.09,3.67,0,13.7,0,27.4,0,41.1Z"/>
          <path class="cls-1" d="m296.34,263.99c.13-.05.25-.11.38-.16,0-1.4,0-2.8,0-4.2,0-27.73,0-55.46,0-83.19,0-1.13-.07-2.26-.08-3.39,0-.86-.33-1.04-1.02-.55-.23.16-.44.36-.65.54-7.31,6.36-14.6,12.76-21.95,19.08-9.35,8.04-18.76,16.01-28.14,24.01-1.74,1.48-1.76,1.6-.08,3.07,6.83,5.99,13.62,12.01,20.5,17.94,8.7,7.5,17.4,14.99,25.97,22.62,1.64,1.46,3.37,2.82,5.06,4.23Z"/>
        </g>
      </g>
    </g>
  </g>
</svg>