<?xml version="1.0" encoding="UTF-8"?>
<svg id="Layer_2" data-name="Layer 2" xmlns="http://www.w3.org/2000/svg" xmlns:xlink="http://www.w3.org/1999/xlink" viewBox="0 0 103.14 135.15">
  <defs>
    <style>
      .cls-1 {
        fill: none;
      }

      .cls-2 {
        opacity: .1;
      }

      .cls-2, .cls-3 {
        fill: #221f1f;
      }

      .cls-4, .cls-5, .cls-6 {
        stroke-width: .46px;
      }

      .cls-4, .cls-5, .cls-6, .cls-7, .cls-8 {
        stroke-miterlimit: 10;
      }

      .cls-4, .cls-5, .cls-6, .cls-8 {
        stroke: #000;
      }

      .cls-4, .cls-9 {
        fill: #d69151;
      }

      .cls-5, .cls-10, .cls-8 {
        fill: #813f2f;
      }

      .cls-6, .cls-11 {
        fill: #28b89c;
      }

      .cls-12 {
        clip-path: url(#clippath);
      }

      .cls-13, .cls-14 {
        fill: #f2f2f3;
      }

      .cls-15 {
        fill: #018574;
      }

      .cls-16 {
        fill: #fff;
      }

      .cls-17 {
        fill: #c94747;
      }

      .cls-18 {
        fill: #212222;
      }

      .cls-19 {
        fill: #414141;
      }

      .cls-20 {
        clip-path: url(#clippath-1);
      }

      .cls-21 {
        clip-path: url(#clippath-4);
      }

      .cls-22 {
        clip-path: url(#clippath-3);
      }

      .cls-23 {
        clip-path: url(#clippath-2);
      }

      .cls-24 {
        clip-path: url(#clippath-5);
      }

      .cls-7 {
        fill: #f16d6a;
        stroke: #231f20;
        stroke-width: .5px;
      }

      .cls-8 {
        stroke-width: .25px;
      }

      .cls-3 {
        opacity: .2;
      }

      .cls-25 {
        opacity: .6;
      }

      .cls-14 {
        opacity: .5;
      }
    </style>
    <clipPath id="clippath">
      <path class="cls-1" d="m76.97,120.74c-5.9.17,23.39-33.13,10.68-43.9-8.23-6.88-40.15,10.14-40.15,10.14,0,0-31.87-17.13-40.11-10.28-12.75,10.73,16.44,44.13,10.54,43.94-11.76-.02-17.19.79-17.7,8.89-.04.71.74,1.3,1.72,1.3l37.12.06s1.66-1.37,8.37-1.36,8.18,1.39,8.18,1.39l37.31.06c.97,0,1.76-.59,1.72-1.29-.49-8.1-5.91-8.93-17.67-8.95Z"/>
    </clipPath>
    <clipPath id="clippath-1">
      <path class="cls-1" d="m73.94,133.93c-6.48,1.78-17.43.78-18.4-.03-2.56-4.94.93-65.07.93-65.07,0,0,14.6-2.96,20.25.03-.04,24.36-11.06,23.06-11.11,56.03,1.64,0,12.76.62,8.33,9.04Z"/>
    </clipPath>
    <clipPath id="clippath-2">
      <path class="cls-1" d="m20.92,133.84c6.47,1.8,17.42.84,18.4.03,2.58-4.94-.71-65.08-.71-65.08,0,0-14.59-3.01-20.25-.03-.04,24.36,10.98,23.1,10.93,56.06-1.64,0-12.77.58-8.36,9.01Z"/>
    </clipPath>
    <clipPath id="clippath-3">
      <path id="COLLAR-2" data-name="COLLAR" class="cls-1" d="m74.35,55.47c-17.89,12-35.72,11.97-53.49-.09l.03-18.75,53.49.09-.03,18.75Z"/>
    </clipPath>
    <clipPath id="clippath-4">
      <rect class="cls-1" x="45.76" y="69.38" width="5.61" height="6.48" transform="translate(-10.56 8.3) rotate(-8.82)"/>
    </clipPath>
    <clipPath id="clippath-5">
      <path class="cls-1" d="m47.91,33.34l-25.85,2.61s9.29,20.22,16.82,21.93c2.02.46,3.72-1.19,3.72-1.19,0,0,.82,2.23,2.84,2.69,7.52,1.71,24.65-12.49,24.65-12.49l-22.17-13.55Z"/>
    </clipPath>
  </defs>
  <g id="Layer_1-2" data-name="Layer 1">
    <rect class="cls-9" x="20.78" y="37.92" width="37.88" height="16.11" rx="8.06" ry="8.06" transform="translate(4.52 -3.55) rotate(5.42)"/>
    <g>
      <path id="TAIL" class="cls-5" d="m64.39,113.08c-.1-1.82-.58-11.04-.58-11.04,0,0,11.72-.61,16.84-.88,9.97,4.1,10.75,15.64,21.95,16.08-5.69,5.78-18.95,4.3-18.95,4.3,0,0,3.09,2.29,5.6,2.33-5.73,1.67-11.61-1.56-11.61-1.56,0,0,1.14,2.17,2.8,3.39-3.75.33-8.45-4.46-8.45-4.46l-7.62-8.16Z"/>
      <g id="BACK-LEGS">
        <path class="cls-4" d="m76.98,118.55c-5.9.21,23.38-28.31,10.68-41.39-8.22-8.35-40.15,12.7-40.15,12.7,0,0-31.86-21.16-40.11-12.84-12.75,13.04,16.44,41.65,10.54,41.43-11.76-.02-17.19.97-17.7,10.8-.04.86.74,1.57,1.72,1.58l37.12.06s1.66-1.67,8.37-1.66,8.18,1.68,8.18,1.68l37.31.06c.97,0,1.76-.71,1.72-1.57-.48-9.83-5.91-10.84-17.67-10.86Z"/>
        <g>
          <g class="cls-25">
            <path class="cls-10" d="m90.72,130.97h-.62c0-3.5-1.11-5-1.12-5.01l.49-.37c.05.07,1.25,1.68,1.24,5.39Z"/>
          </g>
          <g class="cls-25">
            <path class="cls-10" d="m86.57,130.97h-.62c0-2.51-.79-3.6-.8-3.61l.49-.37s.93,1.25.93,3.99Z"/>
          </g>
        </g>
        <g>
          <g class="cls-25">
            <path class="cls-10" d="m4.76,130.83h-.62c0-3.71,1.21-5.32,1.26-5.38l.49.38s-1.13,1.53-1.13,5.01Z"/>
          </g>
          <g class="cls-25">
            <path class="cls-10" d="m8.92,130.84h-.62c0-2.74.9-3.94.94-3.99l.49.38s-.81,1.11-.81,3.61Z"/>
          </g>
        </g>
      </g>
      <g id="SHADOW-LEGS">
        <g class="cls-12">
          <path class="cls-2" d="m47.52,77.5l-11.01-.02-.09,53.41h6.03s-.19-31.65-1.33-49.05c2.89.66,6.38,5.89,6.38,5.89,0,0,3.5-5.22,6.4-5.87-1.2,15.18-1.49,49.05-1.49,49.05h6.03s.09-53.4.09-53.4l-11.01-.02Z"/>
        </g>
      </g>
      <g id="FRONT-LEGS">
        <g>
          <path class="cls-4" d="m73.94,133.93c-6.48,1.78-17.43.78-18.4-.03-2.56-4.94.93-65.07.93-65.07,0,0,14.6-2.96,20.25.03-.04,24.36-11.06,23.06-11.11,56.03,1.64,0,12.76.62,8.33,9.04Z"/>
          <g class="cls-20">
            <g>
              <g class="cls-25">
                <path class="cls-10" d="m73.2,134.94h-.65c0-3.19-1.11-4.6-1.12-4.61l.53-.3c.05.06,1.24,1.53,1.24,4.91Z"/>
              </g>
              <g class="cls-25">
                <path class="cls-10" d="m69.05,134.93h-.65c0-2.31-.8-3.32-.81-3.33l.53-.3s.92,1.14.92,3.63Z"/>
              </g>
            </g>
          </g>
        </g>
        <g>
          <path class="cls-4" d="m20.92,133.84c6.47,1.8,17.42.84,18.4.03,2.58-4.94-.71-65.08-.71-65.08,0,0-14.59-3.01-20.25-.03-.04,24.36,10.98,23.1,10.93,56.06-1.64,0-12.77.58-8.36,9.01Z"/>
          <g class="cls-23">
            <g>
              <g class="cls-25">
                <path class="cls-10" d="m22.3,134.85h-.65c0-3.38,1.2-4.85,1.25-4.91l.53.31s-1.13,1.41-1.14,4.6Z"/>
              </g>
              <g class="cls-25">
                <path class="cls-10" d="m26.45,134.86h-.65c0-2.5.89-3.58.93-3.63l.53.31s-.81,1.02-.82,3.32Z"/>
              </g>
            </g>
          </g>
        </g>
        <g>
          <path class="cls-10" d="m29.32,97.09c.93.96,2.03,1.6,3.24,1.87.6.12,1.22.17,1.86.14.64-.02,1.27-.14,1.94-.23-.29.18-.59.32-.9.47-.32.1-.64.23-.98.29-.67.16-1.38.14-2.08,0-1.37-.31-2.61-1.27-3.09-2.55Z"/>
          <path class="cls-10" d="m64.94,97.15c-.48,1.27-1.72,2.23-3.09,2.54-.69.13-1.4.15-2.08-.02-.34-.06-.66-.19-.98-.29-.31-.15-.61-.3-.89-.47.67.09,1.31.21,1.94.24.64.03,1.26-.01,1.86-.13,1.2-.26,2.3-.9,3.24-1.86Z"/>
        </g>
      </g>
      <path id="CHEST" class="cls-5" d="m72.76,53.42l-25.19,6.68-25.17-6.76s-.57,1.74-1.54,4.5c-1.65,4.74-3.94,12.23-2.69,17.19,1.43-3.15,3.75-3.2,3.75-3.2,0,0-2.39,6.92.46,11.71.18-3.45,1.85-6.09,1.85-6.09,0,0-.37,6.63,3.01,11.24-.83-2.53-.46-7.31.73-7.31,1.77,10.34,13.98,12.5,19.53,20.45,5.58-7.93,17.8-10.05,19.6-20.38,1.19,0,1.54,4.79.7,7.31,3.4-4.6,3.05-11.23,3.05-11.23,0,0,1.66,2.65,1.83,6.1,2.86-4.78.49-11.71.49-11.71,0,0,2.32.06,3.74,3.22,1.25-4.89-.94-12.45-2.57-17.2-.98-2.87-1.59-4.51-1.59-4.51Z"/>
      <path id="CHEST-2" data-name="CHEST" class="cls-4" d="m72.76,50.97l-25.19,6.68-25.17-6.76s-.57,1.74-1.54,4.5c-1.65,4.74-3.94,12.23-2.69,17.19,1.43-3.15,3.75-3.2,3.75-3.2,0,0-2.39,6.92.46,11.71.18-3.45,1.85-6.09,1.85-6.09,0,0-.37,6.63,3.01,11.24-.83-2.53-.46-7.31.73-7.31,1.77,10.34,13.98,12.5,19.53,20.45,5.58-7.93,17.8-10.05,19.6-20.38,1.19,0,1.54,4.79.7,7.31,3.4-4.6,3.05-11.23,3.05-11.23,0,0,1.66,2.65,1.83,6.1,2.86-4.78.49-11.71.49-11.71,0,0,2.32.06,3.74,3.22,1.25-4.89-.94-12.45-2.57-17.2-.98-2.87-1.59-4.51-1.59-4.51Z"/>
      <path id="COLLAR" class="cls-6" d="m74.35,55.47c-17.89,12-35.72,11.97-53.49-.09l.02-9.41,53.49.09-.02,9.41Z"/>
      <g class="cls-22">
        <path class="cls-3" d="m59.21,6.33c-2.99-.68-5.47.55-5.47.55,0,0-1.7-2.18-4.69-2.86C39.32,1.8,18.16,26.25,15.03,40.01c1.68-.88,2.93-.95,2.93-.95,0,0-.65,4.38.57,6.02.82-2.59,1.74-2.1,1.74-2.1,0,0,1.73,4.95,3.32,5.32-.29-4.75.74-6.94.74-6.94,0,0,3.01,4.59,6.25,5.33s13.45-8.55,15.91-7.99,7.6,13.34,10.89,14.09,7.94-2.1,7.94-2.1c0,0,.1,2.45-2.22,6.6,1.59.36,5.17-3.38,5.17-3.38,0,0,1.06-.04.68,2.66,1.81-.95,3.1-5.19,3.1-5.19,0,0,1.1.61,2.24,2.12,3.13-13.75-5.35-44.95-15.1-47.17Z"/>
      </g>
      <g>
        <polygon class="cls-13" points="48.51 64.22 46.26 64.57 45.24 64.73 45.43 65.94 45.82 68.46 46.39 68.37 45.93 65.39 49.02 64.91 49.48 67.89 50.11 67.79 49.72 65.28 49.53 64.06 48.51 64.22"/>
        <g>
          <polygon class="cls-15" points="55.07 75.2 49.66 79.7 43.16 77.05 41.86 68.72 53.77 66.87 55.07 75.2"/>
          <polygon class="cls-15" points="55.33 74.99 49.87 79.53 43.42 76.84 42.12 68.43 54.03 66.59 55.33 74.99"/>
          <polygon class="cls-11" points="55.03 74.96 49.62 79.46 43.12 76.81 41.83 68.48 53.74 66.63 55.03 74.96"/>
        </g>
        <g id="Icon_white">
          <g class="cls-21">
            <path class="cls-16" d="m49.13,72.84l1.23.48-1.5,1.2-1.23-.48-1.03.83,2.46.95,2.53-2.03-.4-2.61-2.06,1.65Zm-1.06-3.42l-2.53,2.03.4,2.61,2.06-1.65-1.23-.48,1.5-1.2,1.23.48,1.03-.83-2.46-.95Z"/>
          </g>
        </g>
      </g>
      <rect class="cls-19" x="46.74" y="63.36" width="1.52" height="2.71" transform="translate(.11 -.08) rotate(.09)"/>
      <g>
        <g>
          <path class="cls-10" d="m49.88,1.35c1.35.14,2.6,1.09,3.25,2.34.3.64.5,1.32.52,2.01.03.34-.02.69-.03,1.02-.07.33-.13.67-.23.99-.09-.67-.13-1.32-.27-1.94-.13-.62-.33-1.21-.61-1.76-.56-1.1-1.46-2-2.63-2.66Z"/>
          <path class="cls-10" d="m55.07,2.61c-.87.35-1.51,1.22-1.7,2.17-.08.48-.08.97.04,1.43.05.23.14.45.21.67.11.21.21.42.34.61-.07-.46-.17-.9-.19-1.34-.03-.44,0-.87.07-1.28.16-.83.59-1.6,1.23-2.26Z"/>
          <path class="cls-10" d="m51.06,3.32c.93.09,1.79.75,2.24,1.61.21.44.35.91.36,1.38.02.24-.01.47-.02.7-.05.23-.09.46-.16.68-.06-.46-.09-.91-.19-1.34-.09-.43-.23-.83-.42-1.21-.39-.76-1.01-1.37-1.81-1.83Z"/>
        </g>
        <g id="MOUTH">
          <path class="cls-5" d="m48.71,61.1c2.24-.19,4.83-3.57,4.83-3.57l-5.81-1.79-3.96,2.6s2.71,2.94,4.94,2.76Z"/>
          <path class="cls-17" d="m48.86,60.43c2.24-.19,3.97-2.85,3.97-2.85l-8.37.7s2.17,2.34,4.4,2.15Z"/>
          <g>
            <path class="cls-7" d="m48.3,59.56c1.2,5.24,1.33,9.78,4.2,9.12,2.87-.66,4.22-5.44,3.01-10.68-1.2-5.24-4.5-8.96-7.37-8.3-2.87.66-1.05,4.62.16,9.86Z"/>
            <path class="cls-17" d="m52.15,59.68c.61,2.65.5,4.78.92,4.68s.26-2.32-.35-4.97c-.61-2.65-1.44-4.72-1.86-4.62s.68,2.26,1.28,4.9Z"/>
          </g>
          <path id="MOUTH-2" data-name="MOUTH" class="cls-5" d="m47.91,33.34l-25.85,2.61s9.29,20.22,16.82,21.93c2.02.46,3.72-1.19,3.72-1.19,0,0,.82,2.23,2.84,2.69,7.52,1.71,24.65-12.49,24.65-12.49l-22.17-13.55Z"/>
          <g id="SPOTS">
            <ellipse class="cls-18" cx="36.75" cy="53.74" rx=".91" ry=".45" transform="translate(-23.81 77.64) rotate(-77.18)"/>
            <ellipse class="cls-18" cx="38.61" cy="52.89" rx=".91" ry=".45" transform="translate(-21.53 78.79) rotate(-77.18)"/>
            <ellipse class="cls-18" cx="36.44" cy="51.04" rx=".91" ry=".45" transform="translate(-21.41 75.24) rotate(-77.18)"/>
            <ellipse class="cls-18" cx="49.76" cy="56.7" rx=".91" ry=".45" transform="translate(-16.58 92.63) rotate(-77.18)"/>
            <ellipse class="cls-18" cx="51.62" cy="55.85" rx=".91" ry=".45" transform="translate(-14.3 93.79) rotate(-77.18)"/>
            <ellipse class="cls-18" cx="49.45" cy="54" rx=".91" ry=".45" transform="translate(-14.18 90.23) rotate(-77.18)"/>
          </g>
          <g class="cls-24">
            <g>
              <path class="cls-18" d="m52.03,47.59c-4.53-1.67-9.2-2.73-14.01-3.19,0,0-.16,6.43,5.17,7.94l-1.49,6.53.73.17,1.49-6.53c5.46.95,8.1-4.92,8.1-4.92Z"/>
              <path class="cls-14" d="m40.95,45.78c2.71.05,5.3.64,7.77,1.77,0,0-1.36,1.79-4.3,1.12s-3.47-2.89-3.47-2.89Z"/>
              <ellipse class="cls-14" cx="45.99" cy="51" rx="1.67" ry=".77" transform="translate(-16.93 23.49) rotate(-24.34)"/>
            </g>
          </g>
        </g>
        <path class="cls-4" d="m58.99,6.68c-2.92-.67-5.34.52-5.34.52,0,0-1.66-2.11-4.59-2.78-9.52-2.17-30.15,21.53-33.18,34.87,1.64-.85,2.87-.91,2.87-.91,0,0-1.04,4.76.15,6.34.8-2.52,2.11-2.53,2.11-2.53,0,0,.81,5.13,2.36,5.48-.29-4.61,1.6-7.05,1.6-7.05,0,0,2.95,4.46,6.11,5.18s13.13-8.28,15.53-7.73,7.45,12.96,10.66,13.69,7.76-2.03,7.76-2.03c0,0,.65,3.02-1.6,7.05,1.55.35,4.5-3.92,4.5-3.92,0,0,1.17.58.8,3.2,1.77-.91,2.89-5.65,2.89-5.65,0,0,1.08.59,2.19,2.06,3.04-13.34-5.3-43.63-14.82-45.8Z"/>
        <path class="cls-4" d="m58.99,6.68c-2.92-.67-5.34.52-5.34.52,0,0-1.66-2.11-4.59-2.78-9.52-2.17-30.15,21.53-33.18,34.87,1.64-.85,2.87-.91,2.87-.91,0,0-1.04,4.76.15,6.34.8-2.52,2.11-2.53,2.11-2.53,0,0,.81,5.13,2.36,5.48-.29-4.61,1.6-7.05,1.6-7.05,0,0,2.95,4.46,6.11,5.18s13.13-8.28,15.53-7.73,7.45,12.96,10.66,13.69,7.76-2.03,7.76-2.03c0,0,.65,3.02-1.6,7.05,1.55.35,4.5-3.92,4.5-3.92,0,0,1.17.58.8,3.2,1.77-.91,2.89-5.65,2.89-5.65,0,0,1.08.59,2.19,2.06,3.04-13.34-5.3-43.63-14.82-45.8Z"/>
        <ellipse class="cls-18" cx="56.74" cy="30.9" rx="4.83" ry="3.66" transform="translate(14.02 79.36) rotate(-77.18)"/>
        <ellipse class="cls-16" cx="56" cy="29.68" rx="1.78" ry="1.32" transform="translate(22.08 83.22) rotate(-85.57)"/>
        <ellipse class="cls-9" cx="60.42" cy="24.62" rx="3.66" ry="7.79" transform="translate(1.34 52.3) rotate(-47.27)"/>
        <g>
          <ellipse class="cls-18" cx="41.44" cy="27.42" rx="4.83" ry="3.66" transform="translate(5.51 61.74) rotate(-77.18)"/>
          <ellipse class="cls-16" cx="42.64" cy="26.64" rx="1.78" ry="1.32" transform="translate(2.37 56.74) rotate(-68.78)"/>
        </g>
        <g>
          <path class="cls-4" d="m29.49,15.17c.75-.39,1.46-.72,2.15-1.04,3.35-3.03,5.01-4.71,8.29-6.88.29-.19,2.15-1.24,2.42-1.43-.32-2.94-5.27-6.56-8.49-5.36-1.41.53-2.86,1.31-4.26,2.46-6.35,5.22-16.38,20.05-13.99,22.96,7.38,1.3,8.02-7.66,13.88-10.71Z"/>
          <path class="cls-8" d="m24.92,15.64c-3.04,2.27-6.49,6.63-8.81,10.09,7.03.94,7.76-7.75,13.52-10.74.75-.39,1.46-.72,2.15-1.04.05-.04.09-.08.13-.12-1.5-1.02-3.69-.66-6.99,1.81Z"/>
          <path class="cls-4" d="m71.98,24.77c-.51-.68-1.01-1.28-1.49-1.86-1.72-4.18-2.5-6.4-4.53-9.78-.18-.29-1.41-2.04-1.57-2.33,1.55-2.52,7.58-3.65,9.97-1.19,1.05,1.08,2.02,2.41,2.79,4.05,3.49,7.45,6.17,25.15,2.76,26.75-7.22-2-3.94-10.36-7.93-15.63Z"/>
          <path class="cls-8" d="m75.91,27.16c1.77,3.36,3.01,8.77,3.62,12.9-6.76-2.17-3.68-10.33-7.59-15.51-.51-.68-1.01-1.28-1.49-1.86-.02-.06-.04-.11-.07-.17,1.79-.27,3.61.99,5.53,4.64Z"/>
        </g>
        <ellipse class="cls-10" cx="60.31" cy="24.08" rx="1.3" ry="4.01" transform="translate(1.7 52.05) rotate(-47.27)"/>
        <ellipse class="cls-9" cx="40.79" cy="20.18" rx="7.79" ry="3.66" transform="translate(-4.15 13.02) rotate(-17.27)"/>
        <ellipse class="cls-10" cx="41.13" cy="19.75" rx="4.01" ry="1.3" transform="translate(-4.15 14.12) rotate(-18.56)"/>
      </g>
    </g>
  </g>
</svg>