<?xml version="1.0" encoding="UTF-8"?>
<svg id="Layer_2" data-name="Layer 2" xmlns="http://www.w3.org/2000/svg" xmlns:xlink="http://www.w3.org/1999/xlink" viewBox="0 0 280.61 44.91">
  <defs>
    <style>
      .cls-1 {
        fill: none;
      }

      .cls-2 {
        clip-path: url(#clippath);
      }

      .cls-3 {
        fill: #fff;
      }

      .cls-4 {
        fill: #25bb9e;
      }

      .cls-5 {
        fill: #26ba9e;
      }

      .cls-6 {
        clip-path: url(#clippath-1);
      }
    </style>
    <clipPath id="clippath">
      <rect class="cls-1" width="228.17" height="44.91"/>
    </clipPath>
    <clipPath id="clippath-1">
      <rect class="cls-1" y="0" width="228.17" height="44.91"/>
    </clipPath>
  </defs>
  <g id="Layer_1-2" data-name="Layer 1">
    <g>
      <g id="Logo_watermark_white_green" data-name="Logo_watermark_white+green">
        <g class="cls-2">
          <polygon class="cls-4" points="217.82 1.15 217.82 13.43 228.17 7.45 228.17 1.15 217.82 1.15"/>
          <g class="cls-6">
            <path class="cls-3" d="m56.07,44.91c-11.2,0-18.18-6.98-18.18-17.22V1.15h10.23v25.7c0,4.58,2.23,8.79,8.01,8.79s8-4.21,8-8.79V1.15h10.29v26.54c0,10.23-7.22,17.22-18.35,17.22m90.77,0c-11.2,0-18.18-6.98-18.18-17.22V1.15h10.23v25.7c0,4.58,2.23,8.79,8.01,8.79s8-4.21,8-8.79V1.15h10.29v26.54c0,10.23-7.22,17.22-18.35,17.22m50.98-1.15l-9.21-16.91h-3.49v16.91h-10.11V1.15h16.25c8.19,0,16.32,3.13,16.32,12.88,0,5.72-3.37,9.81-8.85,11.5l11.14,18.24h-12.04Zm-7.28-34.31h-5.48v9.93h4.88c3.31,0,7.46-.84,7.46-5.18,0-3.97-3.79-4.76-6.86-4.76M18.35,17.84c-4.03-1.26-6.56-2.17-6.56-5,0-3.24,3.06-4.2,5.64-4.27h0c3.25-.01,5.86,2.04,6.32,4.58l7.89-4.55C29.26,3.04,22.8-.03,16.81.11,9.21.46,1.44,4.44,1.44,13.45c0,7.71,5.48,10.47,10.9,12.22,5.59,1.8,8.85,2.83,8.85,6.08,0,3.43-2.77,4.63-5.9,4.63-.77-.02-4.62-.18-6.66-3.04L0,38.32c2.62,5.17,12.45,6.9,15.72,6.54h0c8.26-.15,15.88-4.56,15.88-14.2,0-8.49-7.46-10.96-13.24-12.82m94.8,13.32h0l-.04-.03c-1.81,2.52-4.99,4.32-9.02,4.32-7.1,0-12.1-5.3-12.1-13.06s5.11-13.06,12.28-13.06c3.25,0,6.68,1.27,8.61,3.92h0s8.54-4.93,8.54-4.93C117.78,2.56,110.7.06,103.9,0,90.9,0,80.79,8.73,80.79,22.39s9.81,22.51,22.93,22.51c6.98.12,14.3-3.07,17.88-8.87l-8.45-4.88Zm104.67-12.31v24.91h10.35V12.87l-10.35,5.98Z"/>
          </g>
        </g>
      </g>
      <g>
        <path class="cls-5" d="m257.95,43.76h-4.42l-9.08-12.7-2.77,2.37v10.34h-3.79v-27.03h3.79v13.2c.63-.74,1.27-1.47,1.91-2.2.65-.73,1.29-1.46,1.93-2.2l7.75-8.8h4.34l-10.43,11.78,10.76,15.25Z"/>
        <path class="cls-5" d="m261.57,16.73h7.84c3.44,0,6.03.51,7.77,1.52s2.61,2.74,2.61,5.2c0,1.05-.19,1.98-.57,2.81-.38.83-.94,1.51-1.66,2.05-.73.54-1.62.91-2.68,1.11v.19c1.11.19,2.1.52,2.96,1,.86.48,1.54,1.16,2.04,2.04s.75,2.01.75,3.39c0,1.65-.39,3.05-1.17,4.21s-1.88,2.03-3.3,2.63c-1.42.6-3.12.9-5.08.9h-9.5v-27.03Zm3.79,11.37h4.71c2.18,0,3.69-.36,4.53-1.07.84-.71,1.26-1.76,1.26-3.12s-.5-2.44-1.5-3.06c-1-.62-2.58-.93-4.75-.93h-4.25v8.19Zm0,3.12v9.34h5.16c2.23,0,3.81-.44,4.72-1.31.92-.88,1.38-2.05,1.38-3.53,0-.94-.21-1.74-.62-2.41s-1.08-1.19-2.01-1.54c-.92-.36-2.17-.54-3.74-.54h-4.9Z"/>
      </g>
    </g>
  </g>
</svg>