<?xml version="1.0" encoding="UTF-8"?>
<svg width="320px" height="50px" viewBox="0 0 320 50" version="1.1" xmlns="http://www.w3.org/2000/svg" xmlns:xlink="http://www.w3.org/1999/xlink">
    <title>header_layout_1</title>
    <g id="header_layout_1" stroke="none" stroke-width="1" fill="none" fill-rule="evenodd">
        <rect id="Rectangle" fill="#00A3D7" x="0" y="0" width="320" height="50"></rect>
        <path d="M301.77732,29.3858142 L297.663558,25.2717879 L297.586966,25.3531334 C299.199665,23.0919513 298.786814,19.9682614 296.64204,18.2036964 C294.497267,16.4391314 291.352564,16.6359215 289.444508,18.6541056 C287.536453,20.6722897 287.516248,23.8230795 289.398263,25.8655684 C291.280278,27.9080574 294.422199,28.1451622 296.589427,26.408249 L296.574372,26.4240955 L300.657234,30.5059006 C300.968126,30.8061705 301.462305,30.8018762 301.767933,30.4962489 C302.07356,30.1906216 302.077854,29.6964425 301.777584,29.3855501 L301.77732,29.3858142 Z M293.293874,26.248463 C291.105923,26.248463 289.332239,24.4747784 289.332239,22.2868276 C289.332239,20.0988768 291.105923,18.3251922 293.293874,18.3251922 C295.481825,18.3251922 297.255509,20.0988768 297.255509,22.2868276 C297.253035,24.4737527 295.480799,26.2459887 293.293874,26.248463 L293.293874,26.248463 Z" id="Shape" fill="#FFFFFF" fill-rule="nonzero"></path>
        <path d="M25.8569336,30 L25.8569336,27.9995117 L20.5693359,27.9995117 L20.5693359,17.9140625 L18.0791016,17.9140625 L18.0791016,30 L25.8569336,30 Z M31.0117188,30.1660156 C32.3066406,30.1660156 33.3387044,29.7495931 34.1079102,28.916748 C34.8771159,28.083903 35.2617188,26.9785156 35.2617188,25.6005859 L35.2617188,25.6005859 L35.2451172,24.9863281 C35.1565755,23.7135417 34.7290853,22.7063802 33.9626465,21.9648438 C33.1962077,21.2233073 32.2070312,20.8525391 30.9951172,20.8525391 C30.1429036,20.8525391 29.3944499,21.043457 28.7497559,21.425293 C28.1050618,21.8071289 27.6111654,22.3466797 27.2680664,23.0439453 C26.9249674,23.7412109 26.753418,24.535319 26.753418,25.4262695 L26.753418,25.4262695 L26.753418,25.5341797 C26.753418,26.9619141 27.1394043,28.0908203 27.911377,28.9208984 C28.6833496,29.7509766 29.7167969,30.1660156 31.0117188,30.1660156 Z M31.0117188,28.2319336 C30.4140625,28.2319336 29.9547526,28.006429 29.6337891,27.5554199 C29.3128255,27.1044108 29.1523438,26.4527995 29.1523438,25.6005859 C29.1523438,24.6432292 29.3128255,23.9362793 29.6337891,23.4797363 C29.9547526,23.0231934 30.4085286,22.7949219 30.9951172,22.7949219 C31.5872396,22.7949219 32.0465495,23.0245768 32.3730469,23.4838867 C32.6995443,23.9431966 32.862793,24.5906576 32.862793,25.4262695 C32.862793,26.4057617 32.6995443,27.1182454 32.3730469,27.5637207 C32.0465495,28.009196 31.5927734,28.2319336 31.0117188,28.2319336 Z M40.2836914,33.5361328 C41.1525065,33.5361328 41.9106445,33.3839518 42.5581055,33.0795898 C43.2055664,32.7752279 43.7077637,32.3325195 44.0646973,31.7514648 C44.4216309,31.1704102 44.6000977,30.4869792 44.6000977,29.7011719 L44.6000977,29.7011719 L44.6000977,21.0185547 L42.425293,21.0185547 L42.3256836,21.8652344 C41.777832,21.1901042 41.0113932,20.8525391 40.0263672,20.8525391 C38.9140625,20.8525391 38.0300293,21.273112 37.3742676,22.1142578 C36.7185059,22.9554036 36.390625,24.0649414 36.390625,25.4428711 L36.390625,25.4428711 L36.390625,25.5424805 C36.390625,26.9370117 36.7240397,28.0562337 37.3908691,28.9001465 C38.0576986,29.7440592 38.9306641,30.1660156 40.0097656,30.1660156 C40.9117839,30.1660156 41.6394857,29.8533529 42.1928711,29.2280273 L42.1928711,29.2280273 L42.1928711,29.7094727 C42.1928711,30.3347982 42.0157878,30.817627 41.6616211,31.157959 C41.3074544,31.498291 40.8121745,31.668457 40.1757812,31.668457 C39.3235677,31.668457 38.5986328,31.3336589 38.0009766,30.6640625 L38.0009766,30.6640625 L36.9384766,32.125 C37.2594401,32.5400391 37.7325846,32.8789876 38.3579102,33.1418457 C38.9832357,33.4047038 39.6251628,33.5361328 40.2836914,33.5361328 Z M40.6240234,28.2236328 C40.0540365,28.2236328 39.6057943,27.9925944 39.2792969,27.5305176 C38.9527995,27.0684408 38.7895508,26.4306641 38.7895508,25.6171875 C38.7895508,24.6819661 38.9541829,23.9791667 39.2834473,23.5087891 C39.6127116,23.0384115 40.0651042,22.8032227 40.640625,22.8032227 C41.3544922,22.8032227 41.8719076,23.0771484 42.1928711,23.625 L42.1928711,23.625 L42.1928711,27.4018555 C41.8774414,27.949707 41.3544922,28.2236328 40.6240234,28.2236328 Z M50.3276367,30.1660156 C51.6225586,30.1660156 52.6546224,29.7495931 53.4238281,28.916748 C54.1930339,28.083903 54.5776367,26.9785156 54.5776367,25.6005859 L54.5776367,25.6005859 L54.5610352,24.9863281 C54.4724935,23.7135417 54.0450033,22.7063802 53.2785645,21.9648438 C52.5121257,21.2233073 51.5229492,20.8525391 50.3110352,20.8525391 C49.4588216,20.8525391 48.7103678,21.043457 48.0656738,21.425293 C47.4209798,21.8071289 46.9270833,22.3466797 46.5839844,23.0439453 C46.2408854,23.7412109 46.0693359,24.535319 46.0693359,25.4262695 L46.0693359,25.4262695 L46.0693359,25.5341797 C46.0693359,26.9619141 46.4553223,28.0908203 47.2272949,28.9208984 C47.9992676,29.7509766 49.0327148,30.1660156 50.3276367,30.1660156 Z M50.3276367,28.2319336 C49.7299805,28.2319336 49.2706706,28.006429 48.949707,27.5554199 C48.6287435,27.1044108 48.4682617,26.4527995 48.4682617,25.6005859 C48.4682617,24.6432292 48.6287435,23.9362793 48.949707,23.4797363 C49.2706706,23.0231934 49.7244466,22.7949219 50.3110352,22.7949219 C50.9031576,22.7949219 51.3624674,23.0245768 51.6889648,23.4838867 C52.0154622,23.9431966 52.1787109,24.5906576 52.1787109,25.4262695 C52.1787109,26.4057617 52.0154622,27.1182454 51.6889648,27.5637207 C51.3624674,28.009196 50.9086914,28.2319336 50.3276367,28.2319336 Z" id="Logo" fill="#FFFFFF" fill-rule="nonzero"></path>
        <path d="M216.6437,28.8183869 L216.6437,22.8834359 L220.261666,28.8183869 L222.12021,28.8183869 L222.12021,19.7982526 L220.267861,19.7982526 L220.267861,25.7455939 L216.6437,19.7982526 L214.785156,19.7982526 L214.785156,28.8183869 L216.6437,28.8183869 Z M225.639054,28.9422898 C226.332911,28.9422898 226.896669,28.7006791 227.330329,28.2174576 C227.3675,28.4570033 227.427387,28.657313 227.509988,28.8183869 L227.509988,28.8183869 L229.318971,28.8183869 L229.318971,28.7130694 C229.145507,28.3867916 229.05671,27.9056352 229.05258,27.2696001 L229.05258,27.2696001 L229.05258,24.3640761 C229.05258,23.6123982 228.809937,23.0290219 228.32465,22.613947 C227.839364,22.1988721 227.183711,21.9913347 226.357691,21.9913347 C225.812518,21.9913347 225.321036,22.0852944 224.883246,22.2732139 C224.445456,22.4611334 224.106788,22.720297 223.867242,23.0507049 C223.627696,23.3811127 223.507923,23.7404313 223.507923,24.1286605 L223.507923,24.1286605 L225.298321,24.1286605 C225.298321,23.8767245 225.38402,23.6784798 225.55542,23.5339263 C225.726819,23.3893729 225.963267,23.3170962 226.264764,23.3170962 C226.607562,23.3170962 226.858465,23.4100234 227.017474,23.5958778 C227.176483,23.7817322 227.255987,24.0295381 227.255987,24.3392955 L227.255987,24.3392955 L227.255987,24.7233946 L226.432033,24.7233946 C225.436679,24.7275247 224.675709,24.9195743 224.149121,25.2995433 C223.622534,25.6795123 223.35924,26.2246853 223.35924,26.9350621 C223.35924,27.5132759 223.575038,27.9923672 224.006633,28.3723363 C224.438228,28.7523053 224.982368,28.9422898 225.639054,28.9422898 Z M226.029348,27.5731623 C225.756762,27.5731623 225.541997,27.5008856 225.385053,27.3563321 C225.228109,27.2117787 225.149637,27.0279893 225.149637,26.804964 L225.149637,26.804964 L225.155833,26.6996465 C225.213654,26.0801318 225.69068,25.7703745 226.586912,25.7703745 L226.586912,25.7703745 L227.255987,25.7703745 L227.255987,26.9226718 C227.148605,27.1209165 226.983401,27.2788928 226.760376,27.3966006 C226.53735,27.5143084 226.293675,27.5731623 226.029348,27.5731623 Z M233.69894,28.8183869 L235.960169,22.1152377 L234.089235,22.1152377 L232.84401,26.6314999 L231.598786,22.1152377 L229.727851,22.1152377 L231.98908,28.8183869 L233.69894,28.8183869 Z M237.738176,21.3098685 C238.039674,21.3098685 238.282317,21.2231365 238.466106,21.0496723 C238.649896,20.8762082 238.74179,20.6531829 238.74179,20.3805965 C238.74179,20.1121401 238.650928,19.8911798 238.469204,19.7177157 C238.287479,19.5442516 238.043804,19.4575195 237.738176,19.4575195 C237.428419,19.4575195 237.183711,19.5442516 237.004051,19.7177157 C236.824392,19.8911798 236.734563,20.1121401 236.734563,20.3805965 C236.734563,20.6531829 236.826457,20.8762082 237.010247,21.0496723 C237.194036,21.2231365 237.436679,21.3098685 237.738176,21.3098685 Z M238.636473,28.8183869 L238.636473,22.1152377 L236.83988,22.1152377 L236.83988,28.8183869 L238.636473,28.8183869 Z M242.756246,31.4575195 C243.404671,31.4575195 243.970494,31.3439418 244.453716,31.1167864 C244.936937,30.889631 245.311744,30.5592232 245.578135,30.1255629 C245.844526,29.6919026 245.977722,29.1818355 245.977722,28.5953616 L245.977722,28.5953616 L245.977722,22.1152377 L244.354594,22.1152377 L244.280252,22.7471427 C243.871372,22.2432707 243.299353,21.9913347 242.564196,21.9913347 C241.734046,21.9913347 241.074263,22.3052222 240.584846,22.9329971 C240.09543,23.560772 239.850722,24.3888567 239.850722,25.4172511 L239.850722,25.4172511 L239.850722,25.4915928 C239.850722,26.5323776 240.09956,27.3676899 240.597237,27.9975299 C241.094914,28.6273698 241.746437,28.9422898 242.551806,28.9422898 C243.225012,28.9422898 243.76812,28.7089393 244.181129,28.2422382 L244.181129,28.2422382 L244.181129,28.6015567 C244.181129,29.0682578 244.048966,29.4286088 243.78464,29.6826099 C243.520314,29.9366109 243.15067,30.0636114 242.675709,30.0636114 C242.039674,30.0636114 241.498631,29.8137405 241.05258,29.3139986 L241.05258,29.3139986 L240.259601,30.4043445 C240.499147,30.7141019 240.85227,30.9670704 241.318971,31.16325 C241.785673,31.3594297 242.264764,31.4575195 242.756246,31.4575195 Z M243.010247,27.4926254 C242.584846,27.4926254 242.250309,27.3201938 242.006633,26.9753306 C241.762957,26.6304674 241.641119,26.1544736 241.641119,25.5473492 C241.641119,24.8493626 241.763989,24.3248401 242.00973,23.9737818 C242.255471,23.6227235 242.593107,23.4471943 243.022637,23.4471943 C243.55542,23.4471943 243.941584,23.6516341 244.181129,24.0605139 L244.181129,24.0605139 L244.181129,26.8793058 C243.945714,27.2881855 243.55542,27.4926254 243.010247,27.4926254 Z M249.366468,28.9422898 C250.060324,28.9422898 250.624082,28.7006791 251.057743,28.2174576 C251.094914,28.4570033 251.1548,28.657313 251.237402,28.8183869 L251.237402,28.8183869 L253.046385,28.8183869 L253.046385,28.7130694 C252.872921,28.3867916 252.784124,27.9056352 252.779994,27.2696001 L252.779994,27.2696001 L252.779994,24.3640761 C252.779994,23.6123982 252.53735,23.0290219 252.052064,22.613947 C251.566777,22.1988721 250.911124,21.9913347 250.085105,21.9913347 C249.539932,21.9913347 249.04845,22.0852944 248.61066,22.2732139 C248.172869,22.4611334 247.834201,22.720297 247.594655,23.0507049 C247.35511,23.3811127 247.235337,23.7404313 247.235337,24.1286605 L247.235337,24.1286605 L249.025734,24.1286605 C249.025734,23.8767245 249.111434,23.6784798 249.282833,23.5339263 C249.454232,23.3893729 249.69068,23.3170962 249.992177,23.3170962 C250.334976,23.3170962 250.585879,23.4100234 250.744888,23.5958778 C250.903897,23.7817322 250.983401,24.0295381 250.983401,24.3392955 L250.983401,24.3392955 L250.983401,24.7233946 L250.159446,24.7233946 C249.164093,24.7275247 248.403122,24.9195743 247.876535,25.2995433 C247.349947,25.6795123 247.086653,26.2246853 247.086653,26.9350621 C247.086653,27.5132759 247.302451,27.9923672 247.734046,28.3723363 C248.165642,28.7523053 248.709782,28.9422898 249.366468,28.9422898 Z M249.756762,27.5731623 C249.484175,27.5731623 249.26941,27.5008856 249.112467,27.3563321 C248.955523,27.2117787 248.877051,27.0279893 248.877051,26.804964 L248.877051,26.804964 L248.883246,26.6996465 C248.941067,26.0801318 249.418094,25.7703745 250.314325,25.7703745 L250.314325,25.7703745 L250.983401,25.7703745 L250.983401,26.9226718 C250.876018,27.1209165 250.710814,27.2788928 250.487789,27.3966006 C250.264764,27.5143084 250.021088,27.5731623 249.756762,27.5731623 Z M256.428935,28.9422898 C256.800644,28.9422898 257.162028,28.8885985 257.513086,28.781216 L257.513086,28.781216 L257.513086,27.4244787 C257.360272,27.4533894 257.184743,27.4678448 256.986499,27.4678448 C256.718042,27.4678448 256.536318,27.4141535 256.441326,27.306771 C256.346333,27.1993884 256.298837,27.0217942 256.298837,26.7739883 L256.298837,26.7739883 L256.298837,23.4286088 L257.444939,23.4286088 L257.444939,22.1152377 L256.298837,22.1152377 L256.298837,20.4673285 L254.50844,20.4673285 L254.50844,22.1152377 L253.529606,22.1152377 L253.529606,23.4286088 L254.50844,23.4286088 L254.50844,27.0403796 C254.53322,28.3083197 255.173385,28.9422898 256.428935,28.9422898 Z M259.433582,21.3098685 C259.735079,21.3098685 259.977722,21.2231365 260.161511,21.0496723 C260.345301,20.8762082 260.437195,20.6531829 260.437195,20.3805965 C260.437195,20.1121401 260.346333,19.8911798 260.164609,19.7177157 C259.982885,19.5442516 259.739209,19.4575195 259.433582,19.4575195 C259.123824,19.4575195 258.879116,19.5442516 258.699457,19.7177157 C258.519797,19.8911798 258.429968,20.1121401 258.429968,20.3805965 C258.429968,20.6531829 258.521862,20.8762082 258.705652,21.0496723 C258.889441,21.2231365 259.132084,21.3098685 259.433582,21.3098685 Z M260.331878,28.8183869 L260.331878,22.1152377 L258.535285,22.1152377 L258.535285,28.8183869 L260.331878,28.8183869 Z M264.705652,28.9422898 C265.672095,28.9422898 266.442358,28.6314999 267.016442,28.0099202 C267.590525,27.3883404 267.877567,26.5633533 267.877567,25.5349589 L267.877567,25.5349589 L267.865177,25.076518 C267.799095,24.1265954 267.480045,23.3749176 266.908027,22.8214844 C266.336008,22.2680513 265.597753,21.9913347 264.693262,21.9913347 C264.057226,21.9913347 263.498631,22.1338231 263.017474,22.4187999 C262.536318,22.7037766 262.167707,23.1064612 261.911641,23.6268536 C261.655574,24.1472459 261.527541,24.739915 261.527541,25.4048608 L261.527541,25.4048608 L261.527541,25.4853977 C261.527541,26.550963 261.815616,27.393503 262.391764,28.0130177 C262.967913,28.6325324 263.739209,28.9422898 264.705652,28.9422898 Z M264.705652,27.4988205 C264.259601,27.4988205 263.916803,27.330519 263.677257,26.993916 C263.437712,26.657313 263.317939,26.170994 263.317939,25.5349589 C263.317939,24.8204519 263.437712,24.2928319 263.677257,23.9520988 C263.916803,23.6113657 264.255471,23.4409991 264.693262,23.4409991 C265.135182,23.4409991 265.47798,23.6123982 265.721656,23.9551964 C265.965332,24.2979945 266.08717,24.781216 266.08717,25.4048608 C266.08717,26.1358881 265.965332,26.6676383 265.721656,27.0001112 C265.47798,27.3325841 265.139312,27.4988205 264.705652,27.4988205 Z M270.73353,28.8183869 L270.73353,24.0914896 C270.985466,23.6619594 271.36337,23.4471943 271.867242,23.4471943 C272.251341,23.4471943 272.525993,23.5328938 272.691197,23.7042929 C272.8564,23.875692 272.939002,24.151376 272.939002,24.531345 L272.939002,24.531345 L272.939002,28.8183869 L274.7294,28.8183869 L274.7294,24.487979 C274.72114,23.6578293 274.543546,23.0341845 274.196617,22.6170446 C273.849689,22.1999047 273.321036,21.9913347 272.61066,21.9913347 C271.80529,21.9913347 271.16306,22.2907668 270.683969,22.889631 L270.683969,22.889631 L270.628213,22.1152377 L268.943133,22.1152377 L268.943133,28.8183869 L270.73353,28.8183869 Z" id="Navigation" fill="#FFFFFF" fill-rule="nonzero"></path>
    </g>
</svg>