<?xml version="1.0" encoding="UTF-8"?>
<svg width="320px" height="260px" viewBox="0 0 320 260" version="1.1" xmlns="http://www.w3.org/2000/svg" xmlns:xlink="http://www.w3.org/1999/xlink">
    <title>header_orientation_content</title>
    <g id="header_orientation_content" stroke="none" stroke-width="1" fill="none" fill-rule="evenodd">
        <rect fill="#FFFFFF" x="0" y="0" width="320" height="260"></rect>
        <rect id="Rectangle" fill="#00A3D7" opacity="0.15" x="46.6370968" y="80" width="126" height="150" rx="4"></rect>
        <rect id="Rectangle" fill="#00A3D7" opacity="0.149999991" x="192.435484" y="80" width="70.5645161" height="66.1764706" rx="4"></rect>
        <rect id="Rectangle" fill="#00A3D7" opacity="0.149999991" x="192.435484" y="163.823529" width="70.5645161" height="66.1764706" rx="4"></rect>
        <line x1="68.5" y1="111.5" x2="148.5" y2="111.5" id="Line" stroke="#00A3D7" stroke-width="3" opacity="0.149999991" stroke-linejoin="round"></line>
        <line x1="68.5" y1="121.5" x2="148.5" y2="121.5" id="Line" stroke="#00A3D7" stroke-width="3" opacity="0.149999991" stroke-linejoin="round"></line>
        <line x1="68.5" y1="131.5" x2="148.5" y2="131.5" id="Line" stroke="#00A3D7" stroke-width="3" opacity="0.149999991" stroke-linejoin="round"></line>
        <line x1="68.5" y1="141.5" x2="118.5" y2="141.5" id="Line" stroke="#00A3D7" stroke-width="3" opacity="0.149999991" stroke-linejoin="round"></line>
        <line x1="68.5" y1="166.5" x2="148.5" y2="166.5" id="Line" stroke="#00A3D7" stroke-width="3" opacity="0.149999991" stroke-linejoin="round"></line>
        <line x1="68.5" y1="176.5" x2="148.5" y2="176.5" id="Line" stroke="#00A3D7" stroke-width="3" opacity="0.149999991" stroke-linejoin="round"></line>
        <line x1="68.5" y1="186.5" x2="148.5" y2="186.5" id="Line" stroke="#00A3D7" stroke-width="3" opacity="0.149999991" stroke-linejoin="round"></line>
        <line x1="68.5" y1="196.5" x2="118.5" y2="196.5" id="Line" stroke="#00A3D7" stroke-width="3" opacity="0.149999991" stroke-linejoin="round"></line>
        <rect id="Rectangle" fill="#00A3D7" x="0" y="0" width="320" height="50"></rect>
        <path d="M55.8569336,30 L55.8569336,27.9995117 L50.5693359,27.9995117 L50.5693359,17.9140625 L48.0791016,17.9140625 L48.0791016,30 L55.8569336,30 Z M61.0117188,30.1660156 C62.3066406,30.1660156 63.3387044,29.7495931 64.1079102,28.916748 C64.8771159,28.083903 65.2617188,26.9785156 65.2617188,25.6005859 L65.2617188,25.6005859 L65.2451172,24.9863281 C65.1565755,23.7135417 64.7290853,22.7063802 63.9626465,21.9648438 C63.1962077,21.2233073 62.2070312,20.8525391 60.9951172,20.8525391 C60.1429036,20.8525391 59.3944499,21.043457 58.7497559,21.425293 C58.1050618,21.8071289 57.6111654,22.3466797 57.2680664,23.0439453 C56.9249674,23.7412109 56.753418,24.535319 56.753418,25.4262695 L56.753418,25.4262695 L56.753418,25.5341797 C56.753418,26.9619141 57.1394043,28.0908203 57.911377,28.9208984 C58.6833496,29.7509766 59.7167969,30.1660156 61.0117188,30.1660156 Z M61.0117188,28.2319336 C60.4140625,28.2319336 59.9547526,28.006429 59.6337891,27.5554199 C59.3128255,27.1044108 59.1523438,26.4527995 59.1523438,25.6005859 C59.1523438,24.6432292 59.3128255,23.9362793 59.6337891,23.4797363 C59.9547526,23.0231934 60.4085286,22.7949219 60.9951172,22.7949219 C61.5872396,22.7949219 62.0465495,23.0245768 62.3730469,23.4838867 C62.6995443,23.9431966 62.862793,24.5906576 62.862793,25.4262695 C62.862793,26.4057617 62.6995443,27.1182454 62.3730469,27.5637207 C62.0465495,28.009196 61.5927734,28.2319336 61.0117188,28.2319336 Z M70.2836914,33.5361328 C71.1525065,33.5361328 71.9106445,33.3839518 72.5581055,33.0795898 C73.2055664,32.7752279 73.7077637,32.3325195 74.0646973,31.7514648 C74.4216309,31.1704102 74.6000977,30.4869792 74.6000977,29.7011719 L74.6000977,29.7011719 L74.6000977,21.0185547 L72.425293,21.0185547 L72.3256836,21.8652344 C71.777832,21.1901042 71.0113932,20.8525391 70.0263672,20.8525391 C68.9140625,20.8525391 68.0300293,21.273112 67.3742676,22.1142578 C66.7185059,22.9554036 66.390625,24.0649414 66.390625,25.4428711 L66.390625,25.4428711 L66.390625,25.5424805 C66.390625,26.9370117 66.7240397,28.0562337 67.3908691,28.9001465 C68.0576986,29.7440592 68.9306641,30.1660156 70.0097656,30.1660156 C70.9117839,30.1660156 71.6394857,29.8533529 72.1928711,29.2280273 L72.1928711,29.2280273 L72.1928711,29.7094727 C72.1928711,30.3347982 72.0157878,30.817627 71.6616211,31.157959 C71.3074544,31.498291 70.8121745,31.668457 70.1757812,31.668457 C69.3235677,31.668457 68.5986328,31.3336589 68.0009766,30.6640625 L68.0009766,30.6640625 L66.9384766,32.125 C67.2594401,32.5400391 67.7325846,32.8789876 68.3579102,33.1418457 C68.9832357,33.4047038 69.6251628,33.5361328 70.2836914,33.5361328 Z M70.6240234,28.2236328 C70.0540365,28.2236328 69.6057943,27.9925944 69.2792969,27.5305176 C68.9527995,27.0684408 68.7895508,26.4306641 68.7895508,25.6171875 C68.7895508,24.6819661 68.9541829,23.9791667 69.2834473,23.5087891 C69.6127116,23.0384115 70.0651042,22.8032227 70.640625,22.8032227 C71.3544922,22.8032227 71.8719076,23.0771484 72.1928711,23.625 L72.1928711,23.625 L72.1928711,27.4018555 C71.8774414,27.949707 71.3544922,28.2236328 70.6240234,28.2236328 Z M80.3276367,30.1660156 C81.6225586,30.1660156 82.6546224,29.7495931 83.4238281,28.916748 C84.1930339,28.083903 84.5776367,26.9785156 84.5776367,25.6005859 L84.5776367,25.6005859 L84.5610352,24.9863281 C84.4724935,23.7135417 84.0450033,22.7063802 83.2785645,21.9648438 C82.5121257,21.2233073 81.5229492,20.8525391 80.3110352,20.8525391 C79.4588216,20.8525391 78.7103678,21.043457 78.0656738,21.425293 C77.4209798,21.8071289 76.9270833,22.3466797 76.5839844,23.0439453 C76.2408854,23.7412109 76.0693359,24.535319 76.0693359,25.4262695 L76.0693359,25.4262695 L76.0693359,25.5341797 C76.0693359,26.9619141 76.4553223,28.0908203 77.2272949,28.9208984 C77.9992676,29.7509766 79.0327148,30.1660156 80.3276367,30.1660156 Z M80.3276367,28.2319336 C79.7299805,28.2319336 79.2706706,28.006429 78.949707,27.5554199 C78.6287435,27.1044108 78.4682617,26.4527995 78.4682617,25.6005859 C78.4682617,24.6432292 78.6287435,23.9362793 78.949707,23.4797363 C79.2706706,23.0231934 79.7244466,22.7949219 80.3110352,22.7949219 C80.9031576,22.7949219 81.3624674,23.0245768 81.6889648,23.4838867 C82.0154622,23.9431966 82.1787109,24.5906576 82.1787109,25.4262695 C82.1787109,26.4057617 82.0154622,27.1182454 81.6889648,27.5637207 C81.3624674,28.009196 80.9086914,28.2319336 80.3276367,28.2319336 Z" id="Logo" fill="#FFFFFF" fill-rule="nonzero"></path>
        <path d="M176.6437,28.8183869 L176.6437,22.8834359 L180.261666,28.8183869 L182.12021,28.8183869 L182.12021,19.7982526 L180.267861,19.7982526 L180.267861,25.7455939 L176.6437,19.7982526 L174.785156,19.7982526 L174.785156,28.8183869 L176.6437,28.8183869 Z M185.639054,28.9422898 C186.332911,28.9422898 186.896669,28.7006791 187.330329,28.2174576 C187.3675,28.4570033 187.427387,28.657313 187.509988,28.8183869 L187.509988,28.8183869 L189.318971,28.8183869 L189.318971,28.7130694 C189.145507,28.3867916 189.05671,27.9056352 189.05258,27.2696001 L189.05258,27.2696001 L189.05258,24.3640761 C189.05258,23.6123982 188.809937,23.0290219 188.32465,22.613947 C187.839364,22.1988721 187.183711,21.9913347 186.357691,21.9913347 C185.812518,21.9913347 185.321036,22.0852944 184.883246,22.2732139 C184.445456,22.4611334 184.106788,22.720297 183.867242,23.0507049 C183.627696,23.3811127 183.507923,23.7404313 183.507923,24.1286605 L183.507923,24.1286605 L185.298321,24.1286605 C185.298321,23.8767245 185.38402,23.6784798 185.55542,23.5339263 C185.726819,23.3893729 185.963267,23.3170962 186.264764,23.3170962 C186.607562,23.3170962 186.858465,23.4100234 187.017474,23.5958778 C187.176483,23.7817322 187.255987,24.0295381 187.255987,24.3392955 L187.255987,24.3392955 L187.255987,24.7233946 L186.432033,24.7233946 C185.436679,24.7275247 184.675709,24.9195743 184.149121,25.2995433 C183.622534,25.6795123 183.35924,26.2246853 183.35924,26.9350621 C183.35924,27.5132759 183.575038,27.9923672 184.006633,28.3723363 C184.438228,28.7523053 184.982368,28.9422898 185.639054,28.9422898 Z M186.029348,27.5731623 C185.756762,27.5731623 185.541997,27.5008856 185.385053,27.3563321 C185.228109,27.2117787 185.149637,27.0279893 185.149637,26.804964 L185.149637,26.804964 L185.155833,26.6996465 C185.213654,26.0801318 185.69068,25.7703745 186.586912,25.7703745 L186.586912,25.7703745 L187.255987,25.7703745 L187.255987,26.9226718 C187.148605,27.1209165 186.983401,27.2788928 186.760376,27.3966006 C186.53735,27.5143084 186.293675,27.5731623 186.029348,27.5731623 Z M193.69894,28.8183869 L195.960169,22.1152377 L194.089235,22.1152377 L192.84401,26.6314999 L191.598786,22.1152377 L189.727851,22.1152377 L191.98908,28.8183869 L193.69894,28.8183869 Z M197.738176,21.3098685 C198.039674,21.3098685 198.282317,21.2231365 198.466106,21.0496723 C198.649896,20.8762082 198.74179,20.6531829 198.74179,20.3805965 C198.74179,20.1121401 198.650928,19.8911798 198.469204,19.7177157 C198.287479,19.5442516 198.043804,19.4575195 197.738176,19.4575195 C197.428419,19.4575195 197.183711,19.5442516 197.004051,19.7177157 C196.824392,19.8911798 196.734563,20.1121401 196.734563,20.3805965 C196.734563,20.6531829 196.826457,20.8762082 197.010247,21.0496723 C197.194036,21.2231365 197.436679,21.3098685 197.738176,21.3098685 Z M198.636473,28.8183869 L198.636473,22.1152377 L196.83988,22.1152377 L196.83988,28.8183869 L198.636473,28.8183869 Z M202.756246,31.4575195 C203.404671,31.4575195 203.970494,31.3439418 204.453716,31.1167864 C204.936937,30.889631 205.311744,30.5592232 205.578135,30.1255629 C205.844526,29.6919026 205.977722,29.1818355 205.977722,28.5953616 L205.977722,28.5953616 L205.977722,22.1152377 L204.354594,22.1152377 L204.280252,22.7471427 C203.871372,22.2432707 203.299353,21.9913347 202.564196,21.9913347 C201.734046,21.9913347 201.074263,22.3052222 200.584846,22.9329971 C200.09543,23.560772 199.850722,24.3888567 199.850722,25.4172511 L199.850722,25.4172511 L199.850722,25.4915928 C199.850722,26.5323776 200.09956,27.3676899 200.597237,27.9975299 C201.094914,28.6273698 201.746437,28.9422898 202.551806,28.9422898 C203.225012,28.9422898 203.76812,28.7089393 204.181129,28.2422382 L204.181129,28.2422382 L204.181129,28.6015567 C204.181129,29.0682578 204.048966,29.4286088 203.78464,29.6826099 C203.520314,29.9366109 203.15067,30.0636114 202.675709,30.0636114 C202.039674,30.0636114 201.498631,29.8137405 201.05258,29.3139986 L201.05258,29.3139986 L200.259601,30.4043445 C200.499147,30.7141019 200.85227,30.9670704 201.318971,31.16325 C201.785673,31.3594297 202.264764,31.4575195 202.756246,31.4575195 Z M203.010247,27.4926254 C202.584846,27.4926254 202.250309,27.3201938 202.006633,26.9753306 C201.762957,26.6304674 201.641119,26.1544736 201.641119,25.5473492 C201.641119,24.8493626 201.763989,24.3248401 202.00973,23.9737818 C202.255471,23.6227235 202.593107,23.4471943 203.022637,23.4471943 C203.55542,23.4471943 203.941584,23.6516341 204.181129,24.0605139 L204.181129,24.0605139 L204.181129,26.8793058 C203.945714,27.2881855 203.55542,27.4926254 203.010247,27.4926254 Z M209.366468,28.9422898 C210.060324,28.9422898 210.624082,28.7006791 211.057743,28.2174576 C211.094914,28.4570033 211.1548,28.657313 211.237402,28.8183869 L211.237402,28.8183869 L213.046385,28.8183869 L213.046385,28.7130694 C212.872921,28.3867916 212.784124,27.9056352 212.779994,27.2696001 L212.779994,27.2696001 L212.779994,24.3640761 C212.779994,23.6123982 212.53735,23.0290219 212.052064,22.613947 C211.566777,22.1988721 210.911124,21.9913347 210.085105,21.9913347 C209.539932,21.9913347 209.04845,22.0852944 208.61066,22.2732139 C208.172869,22.4611334 207.834201,22.720297 207.594655,23.0507049 C207.35511,23.3811127 207.235337,23.7404313 207.235337,24.1286605 L207.235337,24.1286605 L209.025734,24.1286605 C209.025734,23.8767245 209.111434,23.6784798 209.282833,23.5339263 C209.454232,23.3893729 209.69068,23.3170962 209.992177,23.3170962 C210.334976,23.3170962 210.585879,23.4100234 210.744888,23.5958778 C210.903897,23.7817322 210.983401,24.0295381 210.983401,24.3392955 L210.983401,24.3392955 L210.983401,24.7233946 L210.159446,24.7233946 C209.164093,24.7275247 208.403122,24.9195743 207.876535,25.2995433 C207.349947,25.6795123 207.086653,26.2246853 207.086653,26.9350621 C207.086653,27.5132759 207.302451,27.9923672 207.734046,28.3723363 C208.165642,28.7523053 208.709782,28.9422898 209.366468,28.9422898 Z M209.756762,27.5731623 C209.484175,27.5731623 209.26941,27.5008856 209.112467,27.3563321 C208.955523,27.2117787 208.877051,27.0279893 208.877051,26.804964 L208.877051,26.804964 L208.883246,26.6996465 C208.941067,26.0801318 209.418094,25.7703745 210.314325,25.7703745 L210.314325,25.7703745 L210.983401,25.7703745 L210.983401,26.9226718 C210.876018,27.1209165 210.710814,27.2788928 210.487789,27.3966006 C210.264764,27.5143084 210.021088,27.5731623 209.756762,27.5731623 Z M216.428935,28.9422898 C216.800644,28.9422898 217.162028,28.8885985 217.513086,28.781216 L217.513086,28.781216 L217.513086,27.4244787 C217.360272,27.4533894 217.184743,27.4678448 216.986499,27.4678448 C216.718042,27.4678448 216.536318,27.4141535 216.441326,27.306771 C216.346333,27.1993884 216.298837,27.0217942 216.298837,26.7739883 L216.298837,26.7739883 L216.298837,23.4286088 L217.444939,23.4286088 L217.444939,22.1152377 L216.298837,22.1152377 L216.298837,20.4673285 L214.50844,20.4673285 L214.50844,22.1152377 L213.529606,22.1152377 L213.529606,23.4286088 L214.50844,23.4286088 L214.50844,27.0403796 C214.53322,28.3083197 215.173385,28.9422898 216.428935,28.9422898 Z M219.433582,21.3098685 C219.735079,21.3098685 219.977722,21.2231365 220.161511,21.0496723 C220.345301,20.8762082 220.437195,20.6531829 220.437195,20.3805965 C220.437195,20.1121401 220.346333,19.8911798 220.164609,19.7177157 C219.982885,19.5442516 219.739209,19.4575195 219.433582,19.4575195 C219.123824,19.4575195 218.879116,19.5442516 218.699457,19.7177157 C218.519797,19.8911798 218.429968,20.1121401 218.429968,20.3805965 C218.429968,20.6531829 218.521862,20.8762082 218.705652,21.0496723 C218.889441,21.2231365 219.132084,21.3098685 219.433582,21.3098685 Z M220.331878,28.8183869 L220.331878,22.1152377 L218.535285,22.1152377 L218.535285,28.8183869 L220.331878,28.8183869 Z M224.705652,28.9422898 C225.672095,28.9422898 226.442358,28.6314999 227.016442,28.0099202 C227.590525,27.3883404 227.877567,26.5633533 227.877567,25.5349589 L227.877567,25.5349589 L227.865177,25.076518 C227.799095,24.1265954 227.480045,23.3749176 226.908027,22.8214844 C226.336008,22.2680513 225.597753,21.9913347 224.693262,21.9913347 C224.057226,21.9913347 223.498631,22.1338231 223.017474,22.4187999 C222.536318,22.7037766 222.167707,23.1064612 221.911641,23.6268536 C221.655574,24.1472459 221.527541,24.739915 221.527541,25.4048608 L221.527541,25.4048608 L221.527541,25.4853977 C221.527541,26.550963 221.815616,27.393503 222.391764,28.0130177 C222.967913,28.6325324 223.739209,28.9422898 224.705652,28.9422898 Z M224.705652,27.4988205 C224.259601,27.4988205 223.916803,27.330519 223.677257,26.993916 C223.437712,26.657313 223.317939,26.170994 223.317939,25.5349589 C223.317939,24.8204519 223.437712,24.2928319 223.677257,23.9520988 C223.916803,23.6113657 224.255471,23.4409991 224.693262,23.4409991 C225.135182,23.4409991 225.47798,23.6123982 225.721656,23.9551964 C225.965332,24.2979945 226.08717,24.781216 226.08717,25.4048608 C226.08717,26.1358881 225.965332,26.6676383 225.721656,27.0001112 C225.47798,27.3325841 225.139312,27.4988205 224.705652,27.4988205 Z M230.73353,28.8183869 L230.73353,24.0914896 C230.985466,23.6619594 231.36337,23.4471943 231.867242,23.4471943 C232.251341,23.4471943 232.525993,23.5328938 232.691197,23.7042929 C232.8564,23.875692 232.939002,24.151376 232.939002,24.531345 L232.939002,24.531345 L232.939002,28.8183869 L234.7294,28.8183869 L234.7294,24.487979 C234.72114,23.6578293 234.543546,23.0341845 234.196617,22.6170446 C233.849689,22.1999047 233.321036,21.9913347 232.61066,21.9913347 C231.80529,21.9913347 231.16306,22.2907668 230.683969,22.889631 L230.683969,22.889631 L230.628213,22.1152377 L228.943133,22.1152377 L228.943133,28.8183869 L230.73353,28.8183869 Z" id="Navigation" fill="#FFFFFF" fill-rule="nonzero"></path>
        <path d="M260.77732,30.3858142 L256.663558,26.2717879 L256.586966,26.3531334 C258.199665,24.0919513 257.786814,20.9682614 255.64204,19.2036964 C253.497267,17.4391314 250.352564,17.6359215 248.444508,19.6541056 C246.536453,21.6722897 246.516248,24.8230795 248.398263,26.8655684 C250.280278,28.9080574 253.422199,29.1451622 255.589427,27.408249 L255.574372,27.4240955 L259.657234,31.5059006 C259.968126,31.8061705 260.462305,31.8018762 260.767933,31.4962489 C261.07356,31.1906216 261.077854,30.6964425 260.777584,30.3855501 L260.77732,30.3858142 Z M252.293874,27.248463 C250.105923,27.248463 248.332239,25.4747784 248.332239,23.2868276 C248.332239,21.0988768 250.105923,19.3251922 252.293874,19.3251922 C254.481825,19.3251922 256.255509,21.0988768 256.255509,23.2868276 C256.253035,25.4737527 254.480799,27.2459887 252.293874,27.248463 L252.293874,27.248463 Z" id="Shape" fill="#FFFFFF" fill-rule="nonzero"></path>
    </g>
</svg>