<?xml version="1.0" encoding="UTF-8"?>
<svg width="320px" height="50px" viewBox="0 0 320 50" version="1.1" xmlns="http://www.w3.org/2000/svg" xmlns:xlink="http://www.w3.org/1999/xlink">
    <title>header_layout_2</title>
    <g id="header_layout_2" stroke="none" stroke-width="1" fill="none" fill-rule="evenodd">
        <rect id="Rectangle" fill="#00A3D7" x="0" y="0" width="320" height="50"></rect>
        <path d="M301.77732,29.3858142 L297.663558,25.2717879 L297.586966,25.3531334 C299.199665,23.0919513 298.786814,19.9682614 296.64204,18.2036964 C294.497267,16.4391314 291.352564,16.6359215 289.444508,18.6541056 C287.536453,20.6722897 287.516248,23.8230795 289.398263,25.8655684 C291.280278,27.9080574 294.422199,28.1451622 296.589427,26.408249 L296.574372,26.4240955 L300.657234,30.5059006 C300.968126,30.8061705 301.462305,30.8018762 301.767933,30.4962489 C302.07356,30.1906216 302.077854,29.6964425 301.777584,29.3855501 L301.77732,29.3858142 Z M293.293874,26.248463 C291.105923,26.248463 289.332239,24.4747784 289.332239,22.2868276 C289.332239,20.0988768 291.105923,18.3251922 293.293874,18.3251922 C295.481825,18.3251922 297.255509,20.0988768 297.255509,22.2868276 C297.253035,24.4737527 295.480799,26.2459887 293.293874,26.248463 L293.293874,26.248463 Z" id="Shape" fill="#FFFFFF" fill-rule="nonzero"></path>
        <path d="M25.8569336,30 L25.8569336,27.9995117 L20.5693359,27.9995117 L20.5693359,17.9140625 L18.0791016,17.9140625 L18.0791016,30 L25.8569336,30 Z M31.0117188,30.1660156 C32.3066406,30.1660156 33.3387044,29.7495931 34.1079102,28.916748 C34.8771159,28.083903 35.2617188,26.9785156 35.2617188,25.6005859 L35.2617188,25.6005859 L35.2451172,24.9863281 C35.1565755,23.7135417 34.7290853,22.7063802 33.9626465,21.9648438 C33.1962077,21.2233073 32.2070312,20.8525391 30.9951172,20.8525391 C30.1429036,20.8525391 29.3944499,21.043457 28.7497559,21.425293 C28.1050618,21.8071289 27.6111654,22.3466797 27.2680664,23.0439453 C26.9249674,23.7412109 26.753418,24.535319 26.753418,25.4262695 L26.753418,25.4262695 L26.753418,25.5341797 C26.753418,26.9619141 27.1394043,28.0908203 27.911377,28.9208984 C28.6833496,29.7509766 29.7167969,30.1660156 31.0117188,30.1660156 Z M31.0117188,28.2319336 C30.4140625,28.2319336 29.9547526,28.006429 29.6337891,27.5554199 C29.3128255,27.1044108 29.1523438,26.4527995 29.1523438,25.6005859 C29.1523438,24.6432292 29.3128255,23.9362793 29.6337891,23.4797363 C29.9547526,23.0231934 30.4085286,22.7949219 30.9951172,22.7949219 C31.5872396,22.7949219 32.0465495,23.0245768 32.3730469,23.4838867 C32.6995443,23.9431966 32.862793,24.5906576 32.862793,25.4262695 C32.862793,26.4057617 32.6995443,27.1182454 32.3730469,27.5637207 C32.0465495,28.009196 31.5927734,28.2319336 31.0117188,28.2319336 Z M40.2836914,33.5361328 C41.1525065,33.5361328 41.9106445,33.3839518 42.5581055,33.0795898 C43.2055664,32.7752279 43.7077637,32.3325195 44.0646973,31.7514648 C44.4216309,31.1704102 44.6000977,30.4869792 44.6000977,29.7011719 L44.6000977,29.7011719 L44.6000977,21.0185547 L42.425293,21.0185547 L42.3256836,21.8652344 C41.777832,21.1901042 41.0113932,20.8525391 40.0263672,20.8525391 C38.9140625,20.8525391 38.0300293,21.273112 37.3742676,22.1142578 C36.7185059,22.9554036 36.390625,24.0649414 36.390625,25.4428711 L36.390625,25.4428711 L36.390625,25.5424805 C36.390625,26.9370117 36.7240397,28.0562337 37.3908691,28.9001465 C38.0576986,29.7440592 38.9306641,30.1660156 40.0097656,30.1660156 C40.9117839,30.1660156 41.6394857,29.8533529 42.1928711,29.2280273 L42.1928711,29.2280273 L42.1928711,29.7094727 C42.1928711,30.3347982 42.0157878,30.817627 41.6616211,31.157959 C41.3074544,31.498291 40.8121745,31.668457 40.1757812,31.668457 C39.3235677,31.668457 38.5986328,31.3336589 38.0009766,30.6640625 L38.0009766,30.6640625 L36.9384766,32.125 C37.2594401,32.5400391 37.7325846,32.8789876 38.3579102,33.1418457 C38.9832357,33.4047038 39.6251628,33.5361328 40.2836914,33.5361328 Z M40.6240234,28.2236328 C40.0540365,28.2236328 39.6057943,27.9925944 39.2792969,27.5305176 C38.9527995,27.0684408 38.7895508,26.4306641 38.7895508,25.6171875 C38.7895508,24.6819661 38.9541829,23.9791667 39.2834473,23.5087891 C39.6127116,23.0384115 40.0651042,22.8032227 40.640625,22.8032227 C41.3544922,22.8032227 41.8719076,23.0771484 42.1928711,23.625 L42.1928711,23.625 L42.1928711,27.4018555 C41.8774414,27.949707 41.3544922,28.2236328 40.6240234,28.2236328 Z M50.3276367,30.1660156 C51.6225586,30.1660156 52.6546224,29.7495931 53.4238281,28.916748 C54.1930339,28.083903 54.5776367,26.9785156 54.5776367,25.6005859 L54.5776367,25.6005859 L54.5610352,24.9863281 C54.4724935,23.7135417 54.0450033,22.7063802 53.2785645,21.9648438 C52.5121257,21.2233073 51.5229492,20.8525391 50.3110352,20.8525391 C49.4588216,20.8525391 48.7103678,21.043457 48.0656738,21.425293 C47.4209798,21.8071289 46.9270833,22.3466797 46.5839844,23.0439453 C46.2408854,23.7412109 46.0693359,24.535319 46.0693359,25.4262695 L46.0693359,25.4262695 L46.0693359,25.5341797 C46.0693359,26.9619141 46.4553223,28.0908203 47.2272949,28.9208984 C47.9992676,29.7509766 49.0327148,30.1660156 50.3276367,30.1660156 Z M50.3276367,28.2319336 C49.7299805,28.2319336 49.2706706,28.006429 48.949707,27.5554199 C48.6287435,27.1044108 48.4682617,26.4527995 48.4682617,25.6005859 C48.4682617,24.6432292 48.6287435,23.9362793 48.949707,23.4797363 C49.2706706,23.0231934 49.7244466,22.7949219 50.3110352,22.7949219 C50.9031576,22.7949219 51.3624674,23.0245768 51.6889648,23.4838867 C52.0154622,23.9431966 52.1787109,24.5906576 52.1787109,25.4262695 C52.1787109,26.4057617 52.0154622,27.1182454 51.6889648,27.5637207 C51.3624674,28.009196 50.9086914,28.2319336 50.3276367,28.2319336 Z" id="Logo" fill="#FFFFFF" fill-rule="nonzero"></path>
        <path d="M131.858544,28.3608673 L131.858544,22.4259164 L135.47651,28.3608673 L137.335054,28.3608673 L137.335054,19.3407331 L135.482705,19.3407331 L135.482705,25.2880743 L131.858544,19.3407331 L130,19.3407331 L130,28.3608673 L131.858544,28.3608673 Z M140.853898,28.4847703 C141.547754,28.4847703 142.111513,28.2431595 142.545173,27.759938 C142.582344,27.9994837 142.64223,28.1997935 142.724832,28.3608673 L142.724832,28.3608673 L144.533815,28.3608673 L144.533815,28.2555498 C144.360351,27.9292721 144.271554,27.4481156 144.267424,26.8120805 L144.267424,26.8120805 L144.267424,23.9065565 C144.267424,23.1548787 144.024781,22.5715023 143.539494,22.1564275 C143.054208,21.7413526 142.398554,21.5338152 141.572535,21.5338152 C141.027362,21.5338152 140.53588,21.6277749 140.09809,21.8156944 C139.660299,22.0036138 139.321631,22.2627775 139.082086,22.5931853 C138.84254,22.9235932 138.722767,23.2829117 138.722767,23.6711409 L138.722767,23.6711409 L140.513165,23.6711409 C140.513165,23.419205 140.598864,23.2209602 140.770263,23.0764068 C140.941662,22.9318534 141.17811,22.8595767 141.479608,22.8595767 C141.822406,22.8595767 142.073309,22.9525039 142.232318,23.1383583 C142.391327,23.3242127 142.470831,23.5720186 142.470831,23.8817759 L142.470831,23.8817759 L142.470831,24.2658751 L141.646877,24.2658751 C140.651523,24.2700052 139.890552,24.4620547 139.363965,24.8420237 C138.837377,25.2219928 138.574084,25.7671657 138.574084,26.4775426 C138.574084,27.0557563 138.789881,27.5348477 139.221477,27.9148167 C139.653072,28.2947858 140.197212,28.4847703 140.853898,28.4847703 Z M141.244192,27.1156427 C140.971606,27.1156427 140.75684,27.043366 140.599897,26.8988126 C140.442953,26.7542592 140.364481,26.5704698 140.364481,26.3474445 L140.364481,26.3474445 L140.370676,26.242127 C140.428498,25.6226123 140.905524,25.3128549 141.801755,25.3128549 L141.801755,25.3128549 L142.470831,25.3128549 L142.470831,26.4651523 C142.363449,26.663397 142.198245,26.8213733 141.975219,26.9390811 C141.752194,27.0567888 141.508518,27.1156427 141.244192,27.1156427 Z M148.913784,28.3608673 L151.175013,21.6577181 L149.304078,21.6577181 L148.058854,26.1739804 L146.813629,21.6577181 L144.942695,21.6577181 L147.203924,28.3608673 L148.913784,28.3608673 Z M152.95302,20.852349 C153.254517,20.852349 153.497161,20.7656169 153.68095,20.5921528 C153.864739,20.4186887 153.956634,20.1956634 153.956634,19.9230769 C153.956634,19.6546205 153.865772,19.4336603 153.684047,19.2601962 C153.502323,19.0867321 153.258647,19 152.95302,19 C152.643263,19 152.398554,19.0867321 152.218895,19.2601962 C152.039236,19.4336603 151.949406,19.6546205 151.949406,19.9230769 C151.949406,20.1956634 152.041301,20.4186887 152.22509,20.5921528 C152.40888,20.7656169 152.651523,20.852349 152.95302,20.852349 Z M153.851316,28.3608673 L153.851316,21.6577181 L152.054724,21.6577181 L152.054724,28.3608673 L153.851316,28.3608673 Z M157.971089,31 C158.619515,31 159.185338,30.8864223 159.66856,30.6592669 C160.151781,30.4321115 160.526588,30.1017037 160.792979,29.6680434 C161.05937,29.2343831 161.192566,28.724316 161.192566,28.137842 L161.192566,28.137842 L161.192566,21.6577181 L159.569437,21.6577181 L159.495096,22.2896231 C159.086216,21.7857512 158.514197,21.5338152 157.77904,21.5338152 C156.94889,21.5338152 156.289107,21.8477026 155.79969,22.4754775 C155.310274,23.1032525 155.065565,23.9313371 155.065565,24.9597315 L155.065565,24.9597315 L155.065565,25.0340733 C155.065565,26.074858 155.314404,26.9101704 155.812081,27.5400103 C156.309757,28.1698503 156.96128,28.4847703 157.766649,28.4847703 C158.439855,28.4847703 158.982963,28.2514197 159.395973,27.7847186 L159.395973,27.7847186 L159.395973,28.1440372 C159.395973,28.6107383 159.26381,28.9710893 158.999484,29.2250903 C158.735157,29.4790914 158.365514,29.6060919 157.890552,29.6060919 C157.254517,29.6060919 156.713474,29.356221 156.267424,28.8564791 L156.267424,28.8564791 L155.474445,29.946825 C155.713991,30.2565823 156.067114,30.5095509 156.533815,30.7057305 C157.000516,30.9019102 157.479608,31 157.971089,31 Z M158.22509,27.0351058 C157.79969,27.0351058 157.465152,26.8626742 157.221477,26.517811 C156.977801,26.1729479 156.855963,25.6969541 156.855963,25.0898296 C156.855963,24.3918431 156.978833,23.8673206 157.224574,23.5162623 C157.470315,23.1652039 157.80795,22.9896748 158.237481,22.9896748 C158.770263,22.9896748 159.156427,23.1941146 159.395973,23.6029943 L159.395973,23.6029943 L159.395973,26.4217863 C159.160558,26.830666 158.770263,27.0351058 158.22509,27.0351058 Z M164.581311,28.4847703 C165.275168,28.4847703 165.838926,28.2431595 166.272586,27.759938 C166.309757,27.9994837 166.369644,28.1997935 166.452246,28.3608673 L166.452246,28.3608673 L168.261229,28.3608673 L168.261229,28.2555498 C168.087765,27.9292721 167.998967,27.4481156 167.994837,26.8120805 L167.994837,26.8120805 L167.994837,23.9065565 C167.994837,23.1548787 167.752194,22.5715023 167.266908,22.1564275 C166.781621,21.7413526 166.125968,21.5338152 165.299948,21.5338152 C164.754775,21.5338152 164.263294,21.6277749 163.825503,21.8156944 C163.387713,22.0036138 163.049045,22.2627775 162.809499,22.5931853 C162.569954,22.9235932 162.450181,23.2829117 162.450181,23.6711409 L162.450181,23.6711409 L164.240578,23.6711409 C164.240578,23.419205 164.326278,23.2209602 164.497677,23.0764068 C164.669076,22.9318534 164.905524,22.8595767 165.207021,22.8595767 C165.549819,22.8595767 165.800723,22.9525039 165.959732,23.1383583 C166.11874,23.3242127 166.198245,23.5720186 166.198245,23.8817759 L166.198245,23.8817759 L166.198245,24.2658751 L165.37429,24.2658751 C164.378936,24.2700052 163.617966,24.4620547 163.091378,24.8420237 C162.564791,25.2219928 162.301497,25.7671657 162.301497,26.4775426 C162.301497,27.0557563 162.517295,27.5348477 162.94889,27.9148167 C163.380485,28.2947858 163.924626,28.4847703 164.581311,28.4847703 Z M164.971606,27.1156427 C164.699019,27.1156427 164.484254,27.043366 164.32731,26.8988126 C164.170367,26.7542592 164.091895,26.5704698 164.091895,26.3474445 L164.091895,26.3474445 L164.09809,26.242127 C164.155911,25.6226123 164.632938,25.3128549 165.529169,25.3128549 L165.529169,25.3128549 L166.198245,25.3128549 L166.198245,26.4651523 C166.090862,26.663397 165.925658,26.8213733 165.702633,26.9390811 C165.479608,27.0567888 165.235932,27.1156427 164.971606,27.1156427 Z M171.643779,28.4847703 C172.015488,28.4847703 172.376871,28.431079 172.72793,28.3236964 L172.72793,28.3236964 L172.72793,26.9669592 C172.575116,26.9958699 172.399587,27.0103252 172.201342,27.0103252 C171.932886,27.0103252 171.751162,26.956634 171.656169,26.8492514 C171.561177,26.7418689 171.513681,26.5642747 171.513681,26.3164688 L171.513681,26.3164688 L171.513681,22.9710893 L172.659783,22.9710893 L172.659783,21.6577181 L171.513681,21.6577181 L171.513681,20.009809 L169.723283,20.009809 L169.723283,21.6577181 L168.74445,21.6577181 L168.74445,22.9710893 L169.723283,22.9710893 L169.723283,26.5828601 C169.748064,27.8508002 170.388229,28.4847703 171.643779,28.4847703 Z M174.648425,20.852349 C174.949923,20.852349 175.192566,20.7656169 175.376355,20.5921528 C175.560145,20.4186887 175.652039,20.1956634 175.652039,19.9230769 C175.652039,19.6546205 175.561177,19.4336603 175.379453,19.2601962 C175.197728,19.0867321 174.954053,19 174.648425,19 C174.338668,19 174.09396,19.0867321 173.9143,19.2601962 C173.734641,19.4336603 173.644812,19.6546205 173.644812,19.9230769 C173.644812,20.1956634 173.736706,20.4186887 173.920496,20.5921528 C174.104285,20.7656169 174.346928,20.852349 174.648425,20.852349 Z M175.546722,28.3608673 L175.546722,21.6577181 L173.750129,21.6577181 L173.750129,28.3608673 L175.546722,28.3608673 Z M179.920496,28.4847703 C180.886939,28.4847703 181.657202,28.1739804 182.231285,27.5524006 C182.805369,26.9308209 183.092411,26.1058338 183.092411,25.0774393 L183.092411,25.0774393 L183.080021,24.6189985 C183.013939,23.6690759 182.694889,22.917398 182.12287,22.3639649 C181.550852,21.8105318 180.812597,21.5338152 179.908105,21.5338152 C179.27207,21.5338152 178.713474,21.6763036 178.232318,21.9612803 C177.751162,22.2462571 177.38255,22.6489417 177.126484,23.169334 C176.870418,23.6897264 176.742385,24.2823955 176.742385,24.9473412 L176.742385,24.9473412 L176.742385,25.0278782 C176.742385,26.0934435 177.030459,26.9359835 177.606608,27.5554982 C178.182757,28.1750129 178.954053,28.4847703 179.920496,28.4847703 Z M179.920496,27.041301 C179.474445,27.041301 179.131647,26.8729995 178.892101,26.5363965 C178.652555,26.1997935 178.532783,25.7134744 178.532783,25.0774393 C178.532783,24.3629324 178.652555,23.8353123 178.892101,23.4945792 C179.131647,23.1538462 179.470315,22.9834796 179.908105,22.9834796 C180.350026,22.9834796 180.692824,23.1548787 180.9365,23.4976768 C181.180176,23.840475 181.302013,24.3236964 181.302013,24.9473412 C181.302013,25.6783686 181.180176,26.2101187 180.9365,26.5425916 C180.692824,26.8750645 180.354156,27.041301 179.920496,27.041301 Z M185.948374,28.3608673 L185.948374,23.6339701 C186.20031,23.2044399 186.578214,22.9896748 187.082086,22.9896748 C187.466185,22.9896748 187.740836,23.0753743 187.90604,23.2467734 C188.071244,23.4181724 188.153846,23.6938565 188.153846,24.0738255 L188.153846,24.0738255 L188.153846,28.3608673 L189.944244,28.3608673 L189.944244,24.0304595 C189.935983,23.2003098 189.758389,22.5766649 189.411461,22.159525 C189.064533,21.7423851 188.53588,21.5338152 187.825503,21.5338152 C187.020134,21.5338152 186.377904,21.8332473 185.898813,22.4321115 L185.898813,22.4321115 L185.843056,21.6577181 L184.157976,21.6577181 L184.157976,28.3608673 L185.948374,28.3608673 Z" id="Navigation" fill="#FFFFFF" fill-rule="nonzero"></path>
    </g>
</svg>