<?xml version="1.0" encoding="UTF-8"?>
<svg width="320px" height="50px" viewBox="0 0 320 50" version="1.1" xmlns="http://www.w3.org/2000/svg" xmlns:xlink="http://www.w3.org/1999/xlink">
    <title>header_layout_3</title>
    <g id="header_layout_3" stroke="none" stroke-width="1" fill="none" fill-rule="evenodd">
        <rect id="Rectangle" fill="#00A3D7" x="0" y="0" width="320" height="50"></rect>
        <path d="M301.77732,29.3858142 L297.663558,25.2717879 L297.586966,25.3531334 C299.199665,23.0919513 298.786814,19.9682614 296.64204,18.2036964 C294.497267,16.4391314 291.352564,16.6359215 289.444508,18.6541056 C287.536453,20.6722897 287.516248,23.8230795 289.398263,25.8655684 C291.280278,27.9080574 294.422199,28.1451622 296.589427,26.408249 L296.574372,26.4240955 L300.657234,30.5059006 C300.968126,30.8061705 301.462305,30.8018762 301.767933,30.4962489 C302.07356,30.1906216 302.077854,29.6964425 301.777584,29.3855501 L301.77732,29.3858142 Z M293.293874,26.248463 C291.105923,26.248463 289.332239,24.4747784 289.332239,22.2868276 C289.332239,20.0988768 291.105923,18.3251922 293.293874,18.3251922 C295.481825,18.3251922 297.255509,20.0988768 297.255509,22.2868276 C297.253035,24.4737527 295.480799,26.2459887 293.293874,26.248463 L293.293874,26.248463 Z" id="Shape" fill="#FFFFFF" fill-rule="nonzero"></path>
        <path d="M25.8569336,30 L25.8569336,27.9995117 L20.5693359,27.9995117 L20.5693359,17.9140625 L18.0791016,17.9140625 L18.0791016,30 L25.8569336,30 Z M31.0117188,30.1660156 C32.3066406,30.1660156 33.3387044,29.7495931 34.1079102,28.916748 C34.8771159,28.083903 35.2617188,26.9785156 35.2617188,25.6005859 L35.2617188,25.6005859 L35.2451172,24.9863281 C35.1565755,23.7135417 34.7290853,22.7063802 33.9626465,21.9648438 C33.1962077,21.2233073 32.2070312,20.8525391 30.9951172,20.8525391 C30.1429036,20.8525391 29.3944499,21.043457 28.7497559,21.425293 C28.1050618,21.8071289 27.6111654,22.3466797 27.2680664,23.0439453 C26.9249674,23.7412109 26.753418,24.535319 26.753418,25.4262695 L26.753418,25.4262695 L26.753418,25.5341797 C26.753418,26.9619141 27.1394043,28.0908203 27.911377,28.9208984 C28.6833496,29.7509766 29.7167969,30.1660156 31.0117188,30.1660156 Z M31.0117188,28.2319336 C30.4140625,28.2319336 29.9547526,28.006429 29.6337891,27.5554199 C29.3128255,27.1044108 29.1523438,26.4527995 29.1523438,25.6005859 C29.1523438,24.6432292 29.3128255,23.9362793 29.6337891,23.4797363 C29.9547526,23.0231934 30.4085286,22.7949219 30.9951172,22.7949219 C31.5872396,22.7949219 32.0465495,23.0245768 32.3730469,23.4838867 C32.6995443,23.9431966 32.862793,24.5906576 32.862793,25.4262695 C32.862793,26.4057617 32.6995443,27.1182454 32.3730469,27.5637207 C32.0465495,28.009196 31.5927734,28.2319336 31.0117188,28.2319336 Z M40.2836914,33.5361328 C41.1525065,33.5361328 41.9106445,33.3839518 42.5581055,33.0795898 C43.2055664,32.7752279 43.7077637,32.3325195 44.0646973,31.7514648 C44.4216309,31.1704102 44.6000977,30.4869792 44.6000977,29.7011719 L44.6000977,29.7011719 L44.6000977,21.0185547 L42.425293,21.0185547 L42.3256836,21.8652344 C41.777832,21.1901042 41.0113932,20.8525391 40.0263672,20.8525391 C38.9140625,20.8525391 38.0300293,21.273112 37.3742676,22.1142578 C36.7185059,22.9554036 36.390625,24.0649414 36.390625,25.4428711 L36.390625,25.4428711 L36.390625,25.5424805 C36.390625,26.9370117 36.7240397,28.0562337 37.3908691,28.9001465 C38.0576986,29.7440592 38.9306641,30.1660156 40.0097656,30.1660156 C40.9117839,30.1660156 41.6394857,29.8533529 42.1928711,29.2280273 L42.1928711,29.2280273 L42.1928711,29.7094727 C42.1928711,30.3347982 42.0157878,30.817627 41.6616211,31.157959 C41.3074544,31.498291 40.8121745,31.668457 40.1757812,31.668457 C39.3235677,31.668457 38.5986328,31.3336589 38.0009766,30.6640625 L38.0009766,30.6640625 L36.9384766,32.125 C37.2594401,32.5400391 37.7325846,32.8789876 38.3579102,33.1418457 C38.9832357,33.4047038 39.6251628,33.5361328 40.2836914,33.5361328 Z M40.6240234,28.2236328 C40.0540365,28.2236328 39.6057943,27.9925944 39.2792969,27.5305176 C38.9527995,27.0684408 38.7895508,26.4306641 38.7895508,25.6171875 C38.7895508,24.6819661 38.9541829,23.9791667 39.2834473,23.5087891 C39.6127116,23.0384115 40.0651042,22.8032227 40.640625,22.8032227 C41.3544922,22.8032227 41.8719076,23.0771484 42.1928711,23.625 L42.1928711,23.625 L42.1928711,27.4018555 C41.8774414,27.949707 41.3544922,28.2236328 40.6240234,28.2236328 Z M50.3276367,30.1660156 C51.6225586,30.1660156 52.6546224,29.7495931 53.4238281,28.916748 C54.1930339,28.083903 54.5776367,26.9785156 54.5776367,25.6005859 L54.5776367,25.6005859 L54.5610352,24.9863281 C54.4724935,23.7135417 54.0450033,22.7063802 53.2785645,21.9648438 C52.5121257,21.2233073 51.5229492,20.8525391 50.3110352,20.8525391 C49.4588216,20.8525391 48.7103678,21.043457 48.0656738,21.425293 C47.4209798,21.8071289 46.9270833,22.3466797 46.5839844,23.0439453 C46.2408854,23.7412109 46.0693359,24.535319 46.0693359,25.4262695 L46.0693359,25.4262695 L46.0693359,25.5341797 C46.0693359,26.9619141 46.4553223,28.0908203 47.2272949,28.9208984 C47.9992676,29.7509766 49.0327148,30.1660156 50.3276367,30.1660156 Z M50.3276367,28.2319336 C49.7299805,28.2319336 49.2706706,28.006429 48.949707,27.5554199 C48.6287435,27.1044108 48.4682617,26.4527995 48.4682617,25.6005859 C48.4682617,24.6432292 48.6287435,23.9362793 48.949707,23.4797363 C49.2706706,23.0231934 49.7244466,22.7949219 50.3110352,22.7949219 C50.9031576,22.7949219 51.3624674,23.0245768 51.6889648,23.4838867 C52.0154622,23.9431966 52.1787109,24.5906576 52.1787109,25.4262695 C52.1787109,26.4057617 52.0154622,27.1182454 51.6889648,27.5637207 C51.3624674,28.009196 50.9086914,28.2319336 50.3276367,28.2319336 Z" id="Logo" fill="#FFFFFF" fill-rule="nonzero"></path>
        <path d="M68.8585441,28.3608673 L68.8585441,22.4259164 L72.4765101,28.3608673 L74.3350542,28.3608673 L74.3350542,19.3407331 L72.4827052,19.3407331 L72.4827052,25.2880743 L68.8585441,19.3407331 L67,19.3407331 L67,28.3608673 L68.8585441,28.3608673 Z M77.8538978,28.4847703 C78.5477543,28.4847703 79.1115126,28.2431595 79.5451729,27.759938 C79.5823438,27.9994837 79.6422303,28.1997935 79.7248322,28.3608673 L79.7248322,28.3608673 L81.5338152,28.3608673 L81.5338152,28.2555498 C81.3603511,27.9292721 81.2715539,27.4481156 81.2674239,26.8120805 L81.2674239,26.8120805 L81.2674239,23.9065565 C81.2674239,23.1548787 81.0247806,22.5715023 80.5394941,22.1564275 C80.0542075,21.7413526 79.3985545,21.5338152 78.5725348,21.5338152 C78.0273619,21.5338152 77.5358802,21.6277749 77.0980898,21.8156944 C76.6602994,22.0036138 76.3216314,22.2627775 76.0820857,22.5931853 C75.84254,22.9235932 75.7227672,23.2829117 75.7227672,23.6711409 L75.7227672,23.6711409 L77.5131647,23.6711409 C77.5131647,23.419205 77.5988642,23.2209602 77.7702633,23.0764068 C77.9416624,22.9318534 78.1781105,22.8595767 78.4796076,22.8595767 C78.8224058,22.8595767 79.0733092,22.9525039 79.232318,23.1383583 C79.3913268,23.3242127 79.4708312,23.5720186 79.4708312,23.8817759 L79.4708312,23.8817759 L79.4708312,24.2658751 L78.6468766,24.2658751 C77.651523,24.2700052 76.8905524,24.4620547 76.3639649,24.8420237 C75.8373774,25.2219928 75.5740836,25.7671657 75.5740836,26.4775426 C75.5740836,27.0557563 75.7898813,27.5348477 76.2214765,27.9148167 C76.6530718,28.2947858 77.1972122,28.4847703 77.8538978,28.4847703 Z M78.244192,27.1156427 C77.9716056,27.1156427 77.7568405,27.043366 77.5998967,26.8988126 C77.442953,26.7542592 77.3644812,26.5704698 77.3644812,26.3474445 L77.3644812,26.3474445 L77.3706763,26.242127 C77.4284977,25.6226123 77.905524,25.3128549 78.8017553,25.3128549 L78.8017553,25.3128549 L79.4708312,25.3128549 L79.4708312,26.4651523 C79.3634486,26.663397 79.1982447,26.8213733 78.9752194,26.9390811 C78.7521941,27.0567888 78.5085183,27.1156427 78.244192,27.1156427 Z M85.9137842,28.3608673 L88.1750129,21.6577181 L86.3040785,21.6577181 L85.0588539,26.1739804 L83.8136293,21.6577181 L81.9426949,21.6577181 L84.2039236,28.3608673 L85.9137842,28.3608673 Z M89.9530201,20.852349 C90.2545173,20.852349 90.4971606,20.7656169 90.6809499,20.5921528 C90.8647393,20.4186887 90.956634,20.1956634 90.956634,19.9230769 C90.956634,19.6546205 90.8657718,19.4336603 90.6840475,19.2601962 C90.5023232,19.0867321 90.2586474,19 89.9530201,19 C89.6432628,19 89.3985545,19.0867321 89.2188952,19.2601962 C89.0392359,19.4336603 88.9494063,19.6546205 88.9494063,19.9230769 C88.9494063,20.1956634 89.041301,20.4186887 89.2250903,20.5921528 C89.4088797,20.7656169 89.651523,20.852349 89.9530201,20.852349 Z M90.8513165,28.3608673 L90.8513165,21.6577181 L89.0547238,21.6577181 L89.0547238,28.3608673 L90.8513165,28.3608673 Z M94.9710893,31 C95.6195147,31 96.1853382,30.8864223 96.6685596,30.6592669 C97.1517811,30.4321115 97.5265875,30.1017037 97.7929788,29.6680434 C98.0593702,29.2343831 98.1925658,28.724316 98.1925658,28.137842 L98.1925658,28.137842 L98.1925658,21.6577181 L96.5694373,21.6577181 L96.4950955,22.2896231 C96.0862158,21.7857512 95.5141972,21.5338152 94.7790398,21.5338152 C93.94889,21.5338152 93.2891069,21.8477026 92.7996902,22.4754775 C92.3102736,23.1032525 92.0655653,23.9313371 92.0655653,24.9597315 L92.0655653,24.9597315 L92.0655653,25.0340733 C92.0655653,26.074858 92.3144037,26.9101704 92.8120805,27.5400103 C93.3097574,28.1698503 93.9612803,28.4847703 94.7666495,28.4847703 C95.4398554,28.4847703 95.9829633,28.2514197 96.3959732,27.7847186 L96.3959732,27.7847186 L96.3959732,28.1440372 C96.3959732,28.6107383 96.26381,28.9710893 95.9994837,29.2250903 C95.7351575,29.4790914 95.3655137,29.6060919 94.8905524,29.6060919 C94.2545173,29.6060919 93.7134744,29.356221 93.2674239,28.8564791 L93.2674239,28.8564791 L92.474445,29.946825 C92.7139907,30.2565823 93.0671141,30.5095509 93.5338152,30.7057305 C94.0005163,30.9019102 94.4796076,31 94.9710893,31 Z M95.2250903,27.0351058 C94.7996902,27.0351058 94.4651523,26.8626742 94.2214765,26.517811 C93.9778007,26.1729479 93.8559628,25.6969541 93.8559628,25.0898296 C93.8559628,24.3918431 93.9788332,23.8673206 94.2245741,23.5162623 C94.4703149,23.1652039 94.8079504,22.9896748 95.2374806,22.9896748 C95.7702633,22.9896748 96.1564275,23.1941146 96.3959732,23.6029943 L96.3959732,23.6029943 L96.3959732,26.4217863 C96.1605576,26.830666 95.7702633,27.0351058 95.2250903,27.0351058 Z M101.581311,28.4847703 C102.275168,28.4847703 102.838926,28.2431595 103.272586,27.759938 C103.309757,27.9994837 103.369644,28.1997935 103.452246,28.3608673 L103.452246,28.3608673 L105.261229,28.3608673 L105.261229,28.2555498 C105.087765,27.9292721 104.998967,27.4481156 104.994837,26.8120805 L104.994837,26.8120805 L104.994837,23.9065565 C104.994837,23.1548787 104.752194,22.5715023 104.266908,22.1564275 C103.781621,21.7413526 103.125968,21.5338152 102.299948,21.5338152 C101.754775,21.5338152 101.263294,21.6277749 100.825503,21.8156944 C100.387713,22.0036138 100.049045,22.2627775 99.8094992,22.5931853 C99.5699535,22.9235932 99.4501807,23.2829117 99.4501807,23.6711409 L99.4501807,23.6711409 L101.240578,23.6711409 C101.240578,23.419205 101.326278,23.2209602 101.497677,23.0764068 C101.669076,22.9318534 101.905524,22.8595767 102.207021,22.8595767 C102.549819,22.8595767 102.800723,22.9525039 102.959732,23.1383583 C103.11874,23.3242127 103.198245,23.5720186 103.198245,23.8817759 L103.198245,23.8817759 L103.198245,24.2658751 L102.37429,24.2658751 C101.378936,24.2700052 100.617966,24.4620547 100.091378,24.8420237 C99.5647909,25.2219928 99.3014972,25.7671657 99.3014972,26.4775426 C99.3014972,27.0557563 99.5172948,27.5348477 99.94889,27.9148167 C100.380485,28.2947858 100.924626,28.4847703 101.581311,28.4847703 Z M101.971606,27.1156427 C101.699019,27.1156427 101.484254,27.043366 101.32731,26.8988126 C101.170367,26.7542592 101.091895,26.5704698 101.091895,26.3474445 L101.091895,26.3474445 L101.09809,26.242127 C101.155911,25.6226123 101.632938,25.3128549 102.529169,25.3128549 L102.529169,25.3128549 L103.198245,25.3128549 L103.198245,26.4651523 C103.090862,26.663397 102.925658,26.8213733 102.702633,26.9390811 C102.479608,27.0567888 102.235932,27.1156427 101.971606,27.1156427 Z M108.643779,28.4847703 C109.015488,28.4847703 109.376871,28.431079 109.72793,28.3236964 L109.72793,28.3236964 L109.72793,26.9669592 C109.575116,26.9958699 109.399587,27.0103252 109.201342,27.0103252 C108.932886,27.0103252 108.751162,26.956634 108.656169,26.8492514 C108.561177,26.7418689 108.513681,26.5642747 108.513681,26.3164688 L108.513681,26.3164688 L108.513681,22.9710893 L109.659783,22.9710893 L109.659783,21.6577181 L108.513681,21.6577181 L108.513681,20.009809 L106.723283,20.009809 L106.723283,21.6577181 L105.74445,21.6577181 L105.74445,22.9710893 L106.723283,22.9710893 L106.723283,26.5828601 C106.748064,27.8508002 107.388229,28.4847703 108.643779,28.4847703 Z M111.648425,20.852349 C111.949923,20.852349 112.192566,20.7656169 112.376355,20.5921528 C112.560145,20.4186887 112.652039,20.1956634 112.652039,19.9230769 C112.652039,19.6546205 112.561177,19.4336603 112.379453,19.2601962 C112.197728,19.0867321 111.954053,19 111.648425,19 C111.338668,19 111.09396,19.0867321 110.9143,19.2601962 C110.734641,19.4336603 110.644812,19.6546205 110.644812,19.9230769 C110.644812,20.1956634 110.736706,20.4186887 110.920496,20.5921528 C111.104285,20.7656169 111.346928,20.852349 111.648425,20.852349 Z M112.546722,28.3608673 L112.546722,21.6577181 L110.750129,21.6577181 L110.750129,28.3608673 L112.546722,28.3608673 Z M116.920496,28.4847703 C117.886939,28.4847703 118.657202,28.1739804 119.231285,27.5524006 C119.805369,26.9308209 120.092411,26.1058338 120.092411,25.0774393 L120.092411,25.0774393 L120.080021,24.6189985 C120.013939,23.6690759 119.694889,22.917398 119.12287,22.3639649 C118.550852,21.8105318 117.812597,21.5338152 116.908105,21.5338152 C116.27207,21.5338152 115.713474,21.6763036 115.232318,21.9612803 C114.751162,22.2462571 114.38255,22.6489417 114.126484,23.169334 C113.870418,23.6897264 113.742385,24.2823955 113.742385,24.9473412 L113.742385,24.9473412 L113.742385,25.0278782 C113.742385,26.0934435 114.030459,26.9359835 114.606608,27.5554982 C115.182757,28.1750129 115.954053,28.4847703 116.920496,28.4847703 Z M116.920496,27.041301 C116.474445,27.041301 116.131647,26.8729995 115.892101,26.5363965 C115.652555,26.1997935 115.532783,25.7134744 115.532783,25.0774393 C115.532783,24.3629324 115.652555,23.8353123 115.892101,23.4945792 C116.131647,23.1538462 116.470315,22.9834796 116.908105,22.9834796 C117.350026,22.9834796 117.692824,23.1548787 117.9365,23.4976768 C118.180176,23.840475 118.302013,24.3236964 118.302013,24.9473412 C118.302013,25.6783686 118.180176,26.2101187 117.9365,26.5425916 C117.692824,26.8750645 117.354156,27.041301 116.920496,27.041301 Z M122.948374,28.3608673 L122.948374,23.6339701 C123.20031,23.2044399 123.578214,22.9896748 124.082086,22.9896748 C124.466185,22.9896748 124.740836,23.0753743 124.90604,23.2467734 C125.071244,23.4181724 125.153846,23.6938565 125.153846,24.0738255 L125.153846,24.0738255 L125.153846,28.3608673 L126.944244,28.3608673 L126.944244,24.0304595 C126.935983,23.2003098 126.758389,22.5766649 126.411461,22.159525 C126.064533,21.7423851 125.53588,21.5338152 124.825503,21.5338152 C124.020134,21.5338152 123.377904,21.8332473 122.898813,22.4321115 L122.898813,22.4321115 L122.843056,21.6577181 L121.157976,21.6577181 L121.157976,28.3608673 L122.948374,28.3608673 Z" id="Navigation" fill="#FFFFFF" fill-rule="nonzero"></path>
    </g>
</svg>