<?xml version="1.0" encoding="UTF-8"?>
<svg width="320px" height="230px" viewBox="0 0 320 230" version="1.1" xmlns="http://www.w3.org/2000/svg" xmlns:xlink="http://www.w3.org/1999/xlink">
    <title>kb_layout_b</title>
    <g id="kb_layout_b" stroke="none" stroke-width="1" fill="none" fill-rule="evenodd">
        <rect fill="#FFFFFF" x="0" y="0" width="320" height="230"></rect>
        <rect id="Rectangle" fill="#00A3D7" x="38" y="40" width="157" height="150" rx="4"></rect>
        <rect id="Rectangle" fill="#00A3D7" opacity="0.149999991" x="214.822308" y="40" width="70.1811541" height="66.1764706" rx="4"></rect>
        <rect id="Rectangle" fill="#00A3D7" opacity="0.149999991" x="214.822308" y="123.823529" width="70.1811541" height="66.1764706" rx="4"></rect>
        <g id="Group" transform="translate(87.000000, 76.000000)" stroke="#FFFFFF" stroke-linejoin="round" stroke-width="3">
            <line x1="0.432098765" y1="0.5" x2="69.5679012" y2="0.5" id="Line"></line>
            <line x1="0.432098765" y1="15.5" x2="69.5679012" y2="15.5" id="Line"></line>
            <line x1="0.432098765" y1="30.5" x2="69.5679012" y2="30.5" id="Line"></line>
            <line x1="0.432098765" y1="45.5" x2="69.5679012" y2="45.5" id="Line"></line>
            <line x1="0.432098765" y1="60.5" x2="69.5679012" y2="60.5" id="Line"></line>
            <line x1="0.432098765" y1="75.5" x2="69.5679012" y2="75.5" id="Line"></line>
        </g>
        <g id="Group-2" transform="translate(75.000000, 73.000000)" fill="#FFFFFF">
            <circle id="Oval" cx="3.5" cy="3.5" r="3.5"></circle>
            <circle id="Oval" cx="3.5" cy="18.5" r="3.5"></circle>
            <circle id="Oval" cx="3.5" cy="33.5" r="3.5"></circle>
            <circle id="Oval" cx="3.5" cy="48.5" r="3.5"></circle>
            <circle id="Oval" cx="3.5" cy="63.5" r="3.5"></circle>
            <circle id="Oval" cx="3.5" cy="78.5" r="3.5"></circle>
        </g>
    </g>
</svg>