<?xml version="1.0" encoding="UTF-8"?>
<svg width="512px" height="512px" viewBox="0 0 512 512" version="1.1" xmlns="http://www.w3.org/2000/svg" xmlns:xlink="http://www.w3.org/1999/xlink">
    <title>kbg_theme_options</title>
    <g id="kbg_theme_options" stroke="none" stroke-width="1" fill="none" fill-rule="evenodd">
        <g id="Group-2" transform="translate(51.000000, 0.000000)" fill="#00A3D7">
            <path d="M211.749907,511.624811 C212.275802,511.986488 212.936252,512.093417 213.549495,511.916171 C214.162738,511.738924 214.664143,511.296181 214.915717,510.70979 C221.204556,496.078011 254.762142,419.028143 265.24354,419.028143 C282.356026,419.028143 316.050512,436.131332 342.249729,436.131332 C368.448946,436.131332 363.537662,375.560387 371.725987,350.846278 C379.914312,326.132169 385.030945,311.662871 385.030945,299.305816 C417.784244,296.013452 411.846211,285.785745 407.747771,275.900101 C403.64933,266.014458 367.918459,221.204101 367.918459,213.789869 C367.918459,205.238274 376.474702,178.950672 376.474702,162.4803 C376.474702,87.5341238 333.693486,0 188.314357,0 C45.8529074,0 0,104.825448 0,162.4803 C0,220.135152 16.2140809,263.260844 34.2249729,282.202627 C52.2358649,301.144409 68.4499458,318.495595 68.4499458,350.615385 C68.7504758,369.165984 62.7142928,387.264694 51.3374593,401.924953 L211.749907,511.624811 Z" id="Path"></path>
        </g>
    </g>
</svg>