<?xml version="1.0" encoding="UTF-8"?>
<svg width="154px" height="26px" viewBox="0 0 154 26" version="1.1" xmlns="http://www.w3.org/2000/svg" xmlns:xlink="http://www.w3.org/1999/xlink">
    <title>pagination_prevnext</title>
    <g id="pagination_prevnext" stroke="none" stroke-width="1" fill="none" fill-rule="evenodd">
        <rect fill="#FFFFFF" x="0" y="0" width="154" height="26"></rect>
        <rect id="Rectangle-3" stroke="#B5B5B5" x="7.5" y="6.5" width="29" height="13" rx="1"></rect>
        <rect id="Rectangle-3" stroke="#B5B5B5" x="117.5" y="6.5" width="29" height="13" rx="1"></rect>
        <path d="M16.453125,12.7324219 L16.7519531,12.7324219 C17.0312514,12.7324219 17.2402337,12.6772466 17.3789062,12.5668945 C17.5175788,12.4565424 17.5869141,12.2958995 17.5869141,12.0849609 C17.5869141,11.8720692 17.5288092,11.7148443 17.4125977,11.6132812 C17.2963861,11.5117182 17.1142591,11.4609375 16.8662109,11.4609375 L16.453125,11.4609375 L16.453125,12.7324219 Z M18.5039062,12.0527344 C18.5039062,12.5136742 18.3598647,12.8662097 18.0717773,13.1103516 C17.78369,13.3544934 17.3740261,13.4765625 16.8427734,13.4765625 L16.453125,13.4765625 L16.453125,15 L15.5449219,15 L15.5449219,10.7167969 L16.9130859,10.7167969 C17.4326198,10.7167969 17.8276354,10.8286122 18.0981445,11.0522461 C18.3686537,11.27588 18.5039062,11.6093728 18.5039062,12.0527344 Z M20.2207031,12.6181641 L20.5136719,12.6181641 C20.8007827,12.6181641 21.0126946,12.570313 21.1494141,12.4746094 C21.2861335,12.3789058 21.3544922,12.2285167 21.3544922,12.0234375 C21.3544922,11.8203115 21.2846687,11.6757817 21.1450195,11.5898438 C21.0053704,11.5039058 20.789064,11.4609375 20.4960938,11.4609375 L20.2207031,11.4609375 L20.2207031,12.6181641 Z M20.2207031,13.3564453 L20.2207031,15 L19.3125,15 L19.3125,10.7167969 L20.5605469,10.7167969 C21.142581,10.7167969 21.5732408,10.8227528 21.8525391,11.034668 C22.1318373,11.2465831 22.2714844,11.5683572 22.2714844,12 C22.2714844,12.2519544 22.2021491,12.4760732 22.0634766,12.6723633 C21.924804,12.8686533 21.7285169,13.0224604 21.4746094,13.1337891 C22.1191438,14.0966845 22.5390615,14.7187486 22.734375,15 L21.7265625,15 L20.7041016,13.3564453 L20.2207031,13.3564453 Z M25.7402344,15 L23.2734375,15 L23.2734375,10.7167969 L25.7402344,10.7167969 L25.7402344,11.4609375 L24.1816406,11.4609375 L24.1816406,12.4013672 L25.6318359,12.4013672 L25.6318359,13.1455078 L24.1816406,13.1455078 L24.1816406,14.25 L25.7402344,14.25 L25.7402344,15 Z M29.0771484,10.7167969 L29.9941406,10.7167969 L28.5380859,15 L27.5478516,15 L26.0947266,10.7167969 L27.0117188,10.7167969 L27.8173828,13.265625 C27.8623049,13.4160164 27.9086912,13.5913076 27.956543,13.7915039 C28.0043948,13.9917002 28.0341796,14.130859 28.0458984,14.2089844 C28.0673829,14.029296 28.1406244,13.714846 28.265625,13.265625 L29.0771484,10.7167969 Z" id="PREV" fill="#9C9C9C" fill-rule="nonzero"></path>
        <path d="M128.481445,15 L127.327148,15 L125.463867,11.7597656 L125.4375,11.7597656 C125.47461,12.3320341 125.493164,12.7402332 125.493164,12.984375 L125.493164,15 L124.681641,15 L124.681641,10.7167969 L125.827148,10.7167969 L127.6875,13.9248047 L127.708008,13.9248047 C127.678711,13.3681613 127.664062,12.9746105 127.664062,12.7441406 L127.664062,10.7167969 L128.481445,10.7167969 L128.481445,15 Z M132.026367,15 L129.55957,15 L129.55957,10.7167969 L132.026367,10.7167969 L132.026367,11.4609375 L130.467773,11.4609375 L130.467773,12.4013672 L131.917969,12.4013672 L131.917969,13.1455078 L130.467773,13.1455078 L130.467773,14.25 L132.026367,14.25 L132.026367,15 Z M136.382812,15 L135.345703,15 L134.349609,13.3798828 L133.353516,15 L132.380859,15 L133.801758,12.7910156 L132.47168,10.7167969 L133.473633,10.7167969 L134.396484,12.2578125 L135.301758,10.7167969 L136.280273,10.7167969 L134.935547,12.8408203 L136.382812,15 Z M138.574219,15 L137.666016,15 L137.666016,11.4726562 L136.50293,11.4726562 L136.50293,10.7167969 L139.737305,10.7167969 L139.737305,11.4726562 L138.574219,11.4726562 L138.574219,15 Z" id="NEXT" fill="#9C9C9C" fill-rule="nonzero"></path>
    </g>
</svg>