<?xml version="1.0" encoding="UTF-8"?>
<svg width="154px" height="26px" viewBox="0 0 154 26" version="1.1" xmlns="http://www.w3.org/2000/svg" xmlns:xlink="http://www.w3.org/1999/xlink">
    <title>pagination_numeric</title>
    <g id="pagination_numeric" stroke="none" stroke-width="1" fill="none" fill-rule="evenodd">
        <rect fill="#FFFFFF" x="0" y="0" width="154" height="26"></rect>
        <rect id="Rectangle-3" stroke="#B5B5B5" x="7.5" y="6.5" width="29" height="13" rx="1"></rect>
        <rect id="Rectangle-3" stroke="#B5B5B5" x="117.5" y="6.5" width="29" height="13" rx="1"></rect>
        <g id="Group-2" transform="translate(46.000000, 6.000000)">
            <g id="Group">
                <rect id="Rectangle-3" stroke="#D8D8D8" x="0.5" y="0.5" width="13" height="13" rx="1"></rect>
                <rect id="Rectangle-3" stroke="#B5B5B5" x="17" y="0" width="14" height="14" rx="1"></rect>
                <rect id="Rectangle-3" stroke="#B5B5B5" x="49" y="0" width="14" height="14" rx="1"></rect>
                <circle id="Oval" fill="#D8D8D8" cx="36.5" cy="7.5" r="1.5"></circle>
                <circle id="Oval" fill="#D8D8D8" cx="40.5" cy="7.5" r="1.5"></circle>
                <circle id="Oval" fill="#D8D8D8" cx="44.5" cy="7.5" r="1.5"></circle>
            </g>
            <path d="M8.02148438,10 L6.81445312,10 L6.81445312,6.6953125 L6.82617188,6.15234375 L6.84570312,5.55859375 C6.64518129,5.75911559 6.50585977,5.89062469 6.42773438,5.953125 L5.77148438,6.48046875 L5.18945312,5.75390625 L7.02929688,4.2890625 L8.02148438,4.2890625 L8.02148438,10 Z" id="1" fill="#D6D6D6" fill-rule="nonzero"></path>
            <path d="M26.0292969,10 L22.0371094,10 L22.0371094,9.16015625 L23.4707031,7.7109375 C23.8951844,7.27603949 24.1725254,6.97461021 24.3027344,6.80664062 C24.4329434,6.63867104 24.5266924,6.48307363 24.5839844,6.33984375 C24.6412763,6.19661387 24.6699219,6.04817785 24.6699219,5.89453125 C24.6699219,5.66536344 24.6067715,5.49479223 24.4804688,5.3828125 C24.354166,5.27083277 24.1855479,5.21484375 23.9746094,5.21484375 C23.7532541,5.21484375 23.5384125,5.26562449 23.3300781,5.3671875 C23.1217438,5.46875051 22.904298,5.61328031 22.6777344,5.80078125 L22.0214844,5.0234375 C22.3027358,4.78385297 22.5358064,4.61458383 22.7207031,4.515625 C22.9055999,4.41666617 23.1074208,4.34049506 23.3261719,4.28710938 C23.544923,4.23372369 23.7897122,4.20703125 24.0605469,4.20703125 C24.4173195,4.20703125 24.7324205,4.27213477 25.0058594,4.40234375 C25.2792982,4.53255273 25.4915357,4.71484258 25.6425781,4.94921875 C25.7936205,5.18359492 25.8691406,5.45182141 25.8691406,5.75390625 C25.8691406,6.0169284 25.8229171,6.26367072 25.7304688,6.49414062 C25.6380204,6.72461053 25.4947926,6.96093629 25.3007812,7.203125 C25.1067699,7.44531371 24.7649764,7.79036234 24.2753906,8.23828125 L23.5410156,8.9296875 L23.5410156,8.984375 L26.0292969,8.984375 L26.0292969,10 Z" id="2" fill="#9C9C9C" fill-rule="nonzero"></path>
            <path d="M56.1152344,6.3515625 C56.6673205,6.3515625 57.1067692,6.50650887 57.4335938,6.81640625 C57.7604183,7.12630363 57.9238281,7.55077855 57.9238281,8.08984375 C57.9238281,8.72786777 57.7272155,9.21874828 57.3339844,9.5625 C56.9407532,9.90625172 56.3782589,10.078125 55.6464844,10.078125 C55.0110645,10.078125 54.4980488,9.97526145 54.1074219,9.76953125 L54.1074219,8.7265625 C54.3131521,8.83593805 54.552733,8.92512986 54.8261719,8.99414062 C55.0996107,9.06315139 55.3587227,9.09765625 55.6035156,9.09765625 C56.3404985,9.09765625 56.7089844,8.79557594 56.7089844,8.19140625 C56.7089844,7.61588254 56.3274778,7.328125 55.5644531,7.328125 C55.4264316,7.328125 55.2740894,7.34179674 55.1074219,7.36914062 C54.9407544,7.39648451 54.8053391,7.42578109 54.7011719,7.45703125 L54.2207031,7.19921875 L54.4355469,4.2890625 L57.5332031,4.2890625 L57.5332031,5.3125 L55.4941406,5.3125 L55.3886719,6.43359375 L55.5253906,6.40625 C55.6842456,6.36979148 55.8808582,6.3515625 56.1152344,6.3515625 Z" id="5" fill="#9C9C9C" fill-rule="nonzero"></path>
        </g>
        <path d="M16.453125,12.7324219 L16.7519531,12.7324219 C17.0312514,12.7324219 17.2402337,12.6772466 17.3789062,12.5668945 C17.5175788,12.4565424 17.5869141,12.2958995 17.5869141,12.0849609 C17.5869141,11.8720692 17.5288092,11.7148443 17.4125977,11.6132812 C17.2963861,11.5117182 17.1142591,11.4609375 16.8662109,11.4609375 L16.453125,11.4609375 L16.453125,12.7324219 Z M18.5039062,12.0527344 C18.5039062,12.5136742 18.3598647,12.8662097 18.0717773,13.1103516 C17.78369,13.3544934 17.3740261,13.4765625 16.8427734,13.4765625 L16.453125,13.4765625 L16.453125,15 L15.5449219,15 L15.5449219,10.7167969 L16.9130859,10.7167969 C17.4326198,10.7167969 17.8276354,10.8286122 18.0981445,11.0522461 C18.3686537,11.27588 18.5039062,11.6093728 18.5039062,12.0527344 Z M20.2207031,12.6181641 L20.5136719,12.6181641 C20.8007827,12.6181641 21.0126946,12.570313 21.1494141,12.4746094 C21.2861335,12.3789058 21.3544922,12.2285167 21.3544922,12.0234375 C21.3544922,11.8203115 21.2846687,11.6757817 21.1450195,11.5898438 C21.0053704,11.5039058 20.789064,11.4609375 20.4960938,11.4609375 L20.2207031,11.4609375 L20.2207031,12.6181641 Z M20.2207031,13.3564453 L20.2207031,15 L19.3125,15 L19.3125,10.7167969 L20.5605469,10.7167969 C21.142581,10.7167969 21.5732408,10.8227528 21.8525391,11.034668 C22.1318373,11.2465831 22.2714844,11.5683572 22.2714844,12 C22.2714844,12.2519544 22.2021491,12.4760732 22.0634766,12.6723633 C21.924804,12.8686533 21.7285169,13.0224604 21.4746094,13.1337891 C22.1191438,14.0966845 22.5390615,14.7187486 22.734375,15 L21.7265625,15 L20.7041016,13.3564453 L20.2207031,13.3564453 Z M25.7402344,15 L23.2734375,15 L23.2734375,10.7167969 L25.7402344,10.7167969 L25.7402344,11.4609375 L24.1816406,11.4609375 L24.1816406,12.4013672 L25.6318359,12.4013672 L25.6318359,13.1455078 L24.1816406,13.1455078 L24.1816406,14.25 L25.7402344,14.25 L25.7402344,15 Z M29.0771484,10.7167969 L29.9941406,10.7167969 L28.5380859,15 L27.5478516,15 L26.0947266,10.7167969 L27.0117188,10.7167969 L27.8173828,13.265625 C27.8623049,13.4160164 27.9086912,13.5913076 27.956543,13.7915039 C28.0043948,13.9917002 28.0341796,14.130859 28.0458984,14.2089844 C28.0673829,14.029296 28.1406244,13.714846 28.265625,13.265625 L29.0771484,10.7167969 Z" id="PREV" fill="#9C9C9C" fill-rule="nonzero"></path>
        <path d="M128.481445,15 L127.327148,15 L125.463867,11.7597656 L125.4375,11.7597656 C125.47461,12.3320341 125.493164,12.7402332 125.493164,12.984375 L125.493164,15 L124.681641,15 L124.681641,10.7167969 L125.827148,10.7167969 L127.6875,13.9248047 L127.708008,13.9248047 C127.678711,13.3681613 127.664062,12.9746105 127.664062,12.7441406 L127.664062,10.7167969 L128.481445,10.7167969 L128.481445,15 Z M132.026367,15 L129.55957,15 L129.55957,10.7167969 L132.026367,10.7167969 L132.026367,11.4609375 L130.467773,11.4609375 L130.467773,12.4013672 L131.917969,12.4013672 L131.917969,13.1455078 L130.467773,13.1455078 L130.467773,14.25 L132.026367,14.25 L132.026367,15 Z M136.382812,15 L135.345703,15 L134.349609,13.3798828 L133.353516,15 L132.380859,15 L133.801758,12.7910156 L132.47168,10.7167969 L133.473633,10.7167969 L134.396484,12.2578125 L135.301758,10.7167969 L136.280273,10.7167969 L134.935547,12.8408203 L136.382812,15 Z M138.574219,15 L137.666016,15 L137.666016,11.4726562 L136.50293,11.4726562 L136.50293,10.7167969 L139.737305,10.7167969 L139.737305,11.4726562 L138.574219,11.4726562 L138.574219,15 Z" id="NEXT" fill="#9C9C9C" fill-rule="nonzero"></path>
    </g>
</svg>