<?xml version="1.0" encoding="UTF-8"?>
<svg width="320px" height="230px" viewBox="0 0 320 230" version="1.1" xmlns="http://www.w3.org/2000/svg" xmlns:xlink="http://www.w3.org/1999/xlink">
    <title>sidebar_left</title>
    <g id="sidebar_left" stroke="none" stroke-width="1" fill="none" fill-rule="evenodd">
        <rect fill="#FFFFFF" x="0" y="0" width="320" height="230"></rect>
        <g id="Group" transform="translate(70.282258, 115.000000) scale(-1, 1) translate(-70.282258, -115.000000) translate(35.000000, 40.000000)" fill="#00A3D7">
            <rect id="Rectangle" x="0" y="0" width="70.5645161" height="66.1764706" rx="4"></rect>
            <rect id="Rectangle" x="0" y="83.8235294" width="70.5645161" height="66.1764706" rx="4"></rect>
        </g>
        <rect id="Rectangle" fill="#00A3D7" opacity="0.15" x="126" y="40" width="159.274194" height="150" rx="4"></rect>
        <line x1="159.5" y1="71.5" x2="239.5" y2="71.5" id="Line" stroke="#00A3D7" stroke-width="3" opacity="0.149999991" stroke-linejoin="round"></line>
        <line x1="159.5" y1="81.5" x2="239.5" y2="81.5" id="Line" stroke="#00A3D7" stroke-width="3" opacity="0.149999991" stroke-linejoin="round"></line>
        <line x1="159.5" y1="91.5" x2="239.5" y2="91.5" id="Line" stroke="#00A3D7" stroke-width="3" opacity="0.149999991" stroke-linejoin="round"></line>
        <line x1="159.5" y1="101.5" x2="209.5" y2="101.5" id="Line" stroke="#00A3D7" stroke-width="3" opacity="0.149999991" stroke-linejoin="round"></line>
        <line x1="159.5" y1="126.5" x2="239.5" y2="126.5" id="Line" stroke="#00A3D7" stroke-width="3" opacity="0.149999991" stroke-linejoin="round"></line>
        <line x1="159.5" y1="136.5" x2="239.5" y2="136.5" id="Line" stroke="#00A3D7" stroke-width="3" opacity="0.149999991" stroke-linejoin="round"></line>
        <line x1="159.5" y1="146.5" x2="239.5" y2="146.5" id="Line" stroke="#00A3D7" stroke-width="3" opacity="0.149999991" stroke-linejoin="round"></line>
        <line x1="159.5" y1="156.5" x2="209.5" y2="156.5" id="Line" stroke="#00A3D7" stroke-width="3" opacity="0.149999991" stroke-linejoin="round"></line>
    </g>
</svg>